<svg viewBox="-250 -250 500 500" width="500" height="500" xmlns="http://www.w3.org/2000/svg"><path d="M-147.8975610052586,-40.01974662619586L-53.85783133143114,-91.28292854923016L-64.59081029053112,-87.05115809702107zM-147.8975610052586,-40.01974662619586L-64.59081029053112,-87.05115809702107L-75.23152385771805,-82.52907052786975zM-147.8975610052586,-40.01974662619586L-43.10882350917054,-95.19392706361468L-53.85783133143114,-91.28292854923016zM-147.8975610052586,-40.01974662619586L-75.23152385771805,-82.52907052786975L-85.7039352384094,-77.74854408772262zM-147.8975610052586,-40.01974662619586L-32.42087484752574,-98.75455185058368L-43.10882350917054,-95.19392706361468zM-147.8975610052586,-40.01974662619586L-85.7039352384094,-77.74854408772262L-95.93221901037711,-72.74251145496713zM-147.8975610052586,-40.01974662619586L-21.871750981353284,-101.93634503931129L-32.42087484752574,-98.75455185058368zM-147.8975610052586,-40.01974662619586L-95.93221901037711,-72.74251145496713L-105.84018353642156,-67.54532449492012zM-147.8975610052586,-40.01974662619586L-11.540142444173183,-104.71198330108903L-21.871750981353284,-101.93634503931129zM-147.8975610052586,-40.01974662619586L-105.84018353642156,-67.54532449492012L-115.35174585522304,-62.19317124664921zM-147.8975610052586,-40.01974662619586L-1.5061711357616998,-107.05515585810319L-11.540142444173183,-104.71198330108903zM-147.8975610052586,-40.01974662619586L-115.35174585522304,-62.19317124664921L-124.39026978556446,-56.7238441358732zM-147.8975610052586,-40.01974662619586L-0.8397188198004373,-107.18531447135243L-1.5061711357616998,-107.05515585810319z" style="fill:rgb(82,237,172)"/><path d="M85.58889561151747,-10.438325523352622L77.93700423104508,-1.3457623122962896L88.1635175256904,-3.538907995984483z" style="fill:rgb(91,68,234)"/><path d="M-147.8975610052586,-40.01974662619586L-124.39026978556446,-56.7238441358732L-132.87883194354905,-51.17696596309332z" style="fill:rgb(82,237,172)"/><path d="M44.666200175780425,8.695085648385188L-7.991532859242477,-92.09555296892833L33.71445757859297,12.94529708221048z" style="fill:rgb(139,83,246)"/><path d="M33.71445757859297,12.94529708221048L-19.215028226785794,-87.31431086728571L22.96150099888247,17.597324255281187z" style="fill:rgb(151,88,246)"/><path d="M55.73965064855687,4.877358639053099L3.392516494663083,-96.57523538786558L44.666200175780425,8.695085648385188z" style="fill:rgb(126,79,245)"/><path d="M22.96150099888247,17.597324255281187L-30.199684798057394,-82.2643250118881L12.483823122817135,22.618806399227783z" style="fill:rgb(162,93,245)"/><path d="M66.85641338135262,1.5211638860713785L14.85832302442053,-100.72190850516944L55.73965064855687,4.877358639053099z" style="fill:rgb(114,75,243)"/><path d="M-147.8975610052586,-40.01974662619586L-132.87883194354905,-51.17696596309332L-140.74020191618408,-45.59419617521741z" style="fill:rgb(82,237,172)"/><path d="M12.483823122817135,22.618806399227783L-40.86758139802566,-76.97941760537122L2.357420699578637,27.976005907128837z" style="fill:rgb(174,99,242)"/><path d="M41.23206979103106,-111.46536028258856L8.148841811149028,-108.94080719725177L-0.8397188198004373,-107.18531447135243z" style="fill:rgb(82,237,172)"/><path d="M77.93700423104508,-1.3457623122962896L26.326272520499792,-104.50491116378286L66.85641338135262,1.5211638860713785z" style="fill:rgb(102,71,239)"/><path d="M2.357420699578637,27.976005907128837L-51.140475411963976,-71.49483783498565L-7.342179323724618,33.63287034696002z" style="fill:rgb(184,105,239)"/><path d="M41.23206979103106,-111.46536028258856L17.342251589265583,-110.34515292563442L8.148841811149028,-108.94080719725177z" style="fill:rgb(82,237,172)"/><path d="M85.58889561151747,-10.438325523352622L37.7154930856721,-107.89454534692418L77.93700423104508,-1.3457623122962896z" style="fill:rgb(91,68,234)"/><path d="M-7.342179323724618,33.63287034696002L-60.9403173091706,-65.84772610356929L-16.539293019556712,39.551694767762854z" style="fill:rgb(195,111,234)"/><path d="M-7.991532859242477,-92.09555296892833L-19.215028226785794,-87.31431086728571L33.71445757859297,12.94529708221048z" style="fill:rgb(151,88,246)"/><path d="M3.392516494663083,-96.57523538786558L-7.991532859242477,-92.09555296892833L44.666200175780425,8.695085648385188z" style="fill:rgb(139,83,246)"/><path d="M41.23206979103106,-111.46536028258856L25.990523752409214,-111.2465648474192L17.342251589265583,-110.34515292563442zM41.23206979103106,-111.46536028258856L-0.8397188198004373,-107.18531447135243L-43.792092976267945,-78.00782378396468z" style="fill:rgb(82,237,172)"/><path d="M-19.215028226785794,-87.31431086728571L-30.199684798057394,-82.2643250118881L22.96150099888247,17.597324255281187z" style="fill:rgb(162,93,245)"/><path d="M14.85832302442053,-100.72190850516944L3.392516494663083,-96.57523538786558L55.73965064855687,4.877358639053099z" style="fill:rgb(126,79,245)"/><path d="M-30.199684798057394,-82.2643250118881L-40.86758139802566,-76.97941760537122L12.483823122817135,22.618806399227783z" style="fill:rgb(174,99,242)"/><path d="M26.326272520499792,-104.50491116378286L14.85832302442053,-100.72190850516944L66.85641338135262,1.5211638860713785z" style="fill:rgb(114,75,243)"/><path d="M-16.539293019556712,39.551694767762854L-70.18843862636531,-60.0769031331865L-25.158536849657704,45.69218092317553z" style="fill:rgb(204,117,228)"/><path d="M41.23206979103106,-111.46536028258856L34.008772231284446,-111.62521446508104L25.990523752409214,-111.2465648474192z" style="fill:rgb(82,237,172)"/><path d="M-40.86758139802566,-76.97941760537122L-51.140475411963976,-71.49483783498565L2.357420699578637,27.976005907128837z" style="fill:rgb(184,105,239)"/><path d="M-147.8975610052586,-40.01974662619586L-154.27418722488417,-34.499614204059334L-159.79474661528207,-29.08235275573247z" style="fill:rgb(82,237,172)"/><path d="M37.7154930856721,-107.89454534692418L26.326272520499792,-104.50491116378286L77.93700423104508,-1.3457623122962896z" style="fill:rgb(102,71,239)"/><path d="M-25.158536849657704,45.69218092317553L-78.80589177320988,-54.22313740812018L-33.12463901214888,52.01180568721878z" style="fill:rgb(213,124,221)"/><path d="M-51.140475411963976,-71.49483783498565L-60.9403173091706,-65.84772610356929L-7.342179323724618,33.63287034696002z" style="fill:rgb(195,111,234)"/><path d="M48.18848732282219,-110.66269751758065L37.7154930856721,-107.89454534692418L85.58889561151747,-10.438325523352622z" style="fill:rgb(91,68,234)"/><path d="M-7.991532859242477,-92.09555296892833L-13.708631847284963,-89.8459026684137L-19.215028226785794,-87.31431086728571zM-147.8975610052586,-40.01974662619586L-159.79474661528207,-29.08235275573247L-164.38575304321571,-23.81838606963568zM-13.708631847284963,-89.8459026684137L-31.323629807199772,-82.9142771668946L-41.336631103733026,-77.14439044140322z" style="fill:rgb(82,237,172)"/><path d="M-60.9403173091706,-65.84772610356929L-70.18843862636531,-60.0769031331865L-16.539293019556712,39.551694767762854z" style="fill:rgb(204,117,228)"/><path d="M43.80217542175781,-111.18941297690198L39.344653358130294,-110.72259941939926L3.392516494663083,-96.57523538786558zM43.020167856526555,-111.27558060405364L41.23206979103106,-111.46536028258856L39.344653358130294,-110.72259941939926zM43.020167856526555,-111.27558060405364L41.31225707806055,-111.46356472624674L41.23206979103106,-111.46536028258856zM26.326272520499792,-104.50491116378286L20.634901395604192,-102.81100149165047L14.85832302442053,-100.72190850516944zM-30.199684798057394,-82.2643250118881L-41.336631103733026,-77.14439044140322L-46.25164844660133,-74.31211091284094z" style="fill:rgb(82,237,172)"/><path d="M-33.12463901214888,52.01180568721878L-86.71352021521125,-48.32942893597872L-40.36253578043641,58.4648236867992z" style="fill:rgb(221,130,213)"/><path d="M43.80217542175781,-111.18941297690198L43.020167856526555,-111.27558060405364L39.344653358130294,-110.72259941939926zM-31.323629807199772,-82.9142771668946L-43.792092976267945,-78.00782378396468L-65.90219347191235,-62.9884803646108zM-40.86758139802566,-76.97941760537122L-46.25164844660133,-74.31211091284094L-51.140475411963976,-71.49483783498565zM47.440318997280954,-110.78890150087751L43.80217542175781,-111.18941297690198L20.634901395604192,-102.81100149165047zM-147.8975610052586,-40.01974662619586L-164.38575304321571,-23.81838606963568L-167.97649469657915,-18.760582870762356z" style="fill:rgb(82,237,172)"/><path d="M-70.18843862636531,-60.0769031331865L-78.80589177320988,-54.22313740812018L-25.158536849657704,45.69218092317553z" style="fill:rgb(213,124,221)"/><path d="M48.18848732282219,-110.66269751758065L47.440318997280954,-110.78890150087751L37.7154930856721,-107.89454534692418zM-147.8975610052586,-40.01974662619586L-151.95502360696887,-4.533038864511595L-0.8397188198004373,-107.18531447135243z" style="fill:rgb(82,237,172)"/><path d="M48.18848732282219,-110.66269751758065L47.816094266371,-110.74752493624813L47.440318997280954,-110.78890150087751z" style="fill:rgb(82,238,172)"/><path d="M-40.36253578043641,58.4648236867992L-93.83198272970508,-42.44153333918259L-46.79810280859754,65.00289074418058z" style="fill:rgb(228,137,204)"/><path d="M-147.8975610052586,-40.01974662619586L-167.97649469657915,-18.760582870762356L-170.50103577644506,-13.963038719734858z" style="fill:rgb(82,237,172)"/><path d="M-78.80589177320988,-54.22313740812018L-86.71352021521125,-48.32942893597872L-33.12463901214888,52.01180568721878z" style="fill:rgb(221,130,213)"/><path d="M-60.9403173091706,-65.84772610356929L-65.90219347191235,-62.9884803646108L-70.18843862636531,-60.0769031331865z" style="fill:rgb(82,237,172)"/><path d="M-46.79810280859754,65.00289074418058L-100.08284024476306,-36.60725045259067L-52.35804175626323,71.57451972414198z" style="fill:rgb(234,143,195)"/><path d="M-147.8975610052586,-40.01974662619586L-170.50103577644506,-13.963038719734858L-171.89841185755472,-9.481443333895589z" style="fill:rgb(82,237,172)"/><path d="M-86.71352021521125,-48.32942893597872L-93.83198272970508,-42.44153333918259L-40.36253578043641,58.4648236867992z" style="fill:rgb(228,137,204)"/><path d="M-147.8975610052586,-40.01974662619586L-171.89841185755472,-9.481443333895589L-171.93232625368282,-8.840754989200706z" style="fill:rgb(82,237,172)"/><path d="M-52.35804175626323,71.57451972414198L-105.3885715917999,-30.87725397648524L-56.97113664005414,78.12490907431635z" style="fill:rgb(239,149,184)"/><path d="M-93.83198272970508,-42.44153333918259L-100.08284024476306,-36.60725045259067L-46.79810280859754,65.00289074418058z" style="fill:rgb(234,143,195)"/><path d="M-78.80589177320988,-54.22313740812018L-87.63508572048862,-48.22544529195218L-90.73479304460581,-45.332298702998486zM-86.71352021521125,-48.32942893597872L-90.73479304460581,-45.332298702998486L-93.83198272970508,-42.44153333918259zM-147.8975610052586,-40.01974662619586L-171.93232625368282,-8.840754989200706L-151.95502360696887,-4.533038864511595z" style="fill:rgb(82,237,172)"/><path d="M-56.97113664005414,78.12490907431635L-109.67374472673727,-25.304408991590666L-60.568788383536464,84.5958568721707z" style="fill:rgb(242,155,174)"/><path d="M-100.08284024476306,-36.60725045259067L-105.3885715917999,-30.87725397648524L-52.35804175626323,71.57451972414198z" style="fill:rgb(239,149,184)"/><path d="M-116.84727807604335,111.04233470177704L-168.84620047922755,1.5076297470140247L-119.58793592264333,106.77148091643015z" style="fill:rgb(15,71,152)"/><path d="M-60.568788383536464,84.5958568721707L-112.8660461320701,-19.94442480131663L-63.08652875683266,90.92625378423963z" style="fill:rgb(245,161,162)"/><path d="M-105.3885715917999,-30.87725397648524L-109.67374472673727,-25.304408991590666L-56.97113664005414,78.12490907431635z" style="fill:rgb(242,155,174)"/><path d="M-100.08284024476306,-36.60725045259067L-103.2696025880032,-33.6328908972992L-105.3885715917999,-30.87725397648524zM-171.93232625368282,-8.840754989200706L-172.1157697259945,-5.372000411027834L-171.10911415512976,-1.6906383877860534z" style="fill:rgb(82,237,172)"/><path d="M-119.58793592264333,106.77148091643015L-168.84620047922755,1.5076297470140247L-171.10911415512976,-1.6906383877860534z" style="fill:rgb(15,71,152)"/><path d="M-112.89158426657364,114.79182224264095L-165.3077227478666,4.169806705578492L-116.84727807604335,111.04233470177704z" style="fill:rgb(20,68,163)"/><path d="M-109.67374472673727,-25.304408991590666L-112.8660461320701,-19.94442480131663L-60.568788383536464,84.5958568721707z" style="fill:rgb(245,161,162)"/><path d="M-63.08652875683266,90.92625378423963L-114.89781667547359,-14.854596428563282L-64.46485684736636,97.05205762953332z" style="fill:rgb(246,166,151)"/><path d="M-171.93232625368282,-8.840754989200706L-171.10911415512976,-1.6906383877860534L-168.84620047922755,1.5076297470140247zM-103.2696025880032,-33.6328908972992L-109.8554542803276,-27.48600309044864L-111.86277521201352,-22.457628196041323z" style="fill:rgb(82,237,172)"/><path d="M-107.72588221981798,117.95947926806966L-160.49059844012532,6.24650421542241L-112.89158426657364,114.79182224264095z" style="fill:rgb(26,66,175)"/><path d="M-116.84727807604335,111.04233470177704L-165.3077227478666,4.169806705578492L-168.84620047922755,1.5076297470140247z" style="fill:rgb(20,68,163)"/><path d="M-171.93232625368282,-8.840754989200706L-168.84620047922755,1.5076297470140247L-165.3077227478666,4.169806705578492z" style="fill:rgb(82,237,172)"/><path d="M-112.8660461320701,-19.94442480131663L-114.89781667547359,-14.854596428563282L-63.08652875683266,90.92625378423963z" style="fill:rgb(246,166,151)"/><path d="M-64.46485684736636,97.05205762953332L-115.70763158973907,-10.094224735528872L-64.65136599047119,102.90643171906991z" style="fill:rgb(246,171,139)"/><path d="M116.0543440086927,-65.20052170782779L3.392516494663083,-96.57523538786558L-7.991532859242477,-92.09555296892833zM116.0543440086927,-65.20052170782779L-7.991532859242477,-92.09555296892833L-19.215028226785794,-87.31431086728571zM-87.63508572048862,-48.22544529195218L-151.95502360696887,-4.533038864511595L-137.73297515944833,-1.466452445302672zM116.0543440086927,-65.20052170782779L14.85832302442053,-100.72190850516944L3.392516494663083,-96.57523538786558zM116.0543440086927,-65.20052170782779L-19.215028226785794,-87.31431086728571L-30.199684798057394,-82.2643250118881zM116.0543440086927,-65.20052170782779L26.326272520499792,-104.50491116378286L14.85832302442053,-100.72190850516944zM116.0543440086927,-65.20052170782779L-30.199684798057394,-82.2643250118881L-40.86758139802566,-76.97941760537122zM-109.67374472673727,-25.304408991590666L-111.86277521201352,-22.457628196041323L-112.8660461320701,-19.94442480131663zM116.0543440086927,-65.20052170782779L37.7154930856721,-107.89454534692418L26.326272520499792,-104.50491116378286zM116.0543440086927,-65.20052170782779L-40.86758139802566,-76.97941760537122L-51.140475411963976,-71.49483783498565z" style="fill:rgb(82,237,172)"/><path d="M-101.37233853399233,120.48900869337567L-154.40907384025212,7.6934751726613655L-107.72588221981798,117.95947926806966z" style="fill:rgb(32,65,185)"/><path d="M-112.89158426657364,114.79182224264095L-160.49059844012532,6.24650421542241L-165.3077227478666,4.169806705578492z" style="fill:rgb(26,66,175)"/><path d="M-171.93232625368282,-8.840754989200706L-165.3077227478666,4.169806705578492L-160.49059844012532,6.24650421542241zM116.0543440086927,-65.20052170782779L48.94344126867039,-110.86215737229796L37.7154930856721,-107.89454534692418zM116.0543440086927,-65.20052170782779L-51.140475411963976,-71.49483783498565L-60.9403173091706,-65.84772610356929zM-109.8554542803276,-27.48600309044864L-116.86275473421874,-20.945742284564577L-115.93729782653648,-12.250717802250094zM116.0543440086927,-65.20052170782779L59.92583101156342,-113.37993643755415L48.94344126867039,-110.86215737229796zM116.0543440086927,-65.20052170782779L-60.9403173091706,-65.84772610356929L-70.18843862636531,-60.0769031331865z" style="fill:rgb(82,237,172)"/><path d="M-114.89781667547359,-14.854596428563282L-115.70763158973907,-10.094224735528872L-64.46485684736636,97.05205762953332z" style="fill:rgb(246,171,139)"/><path d="M-64.65136599047119,102.90643171906991L-115.24243758015959,-5.723496433540644L-63.602077628270806,108.42082549448443z" style="fill:rgb(245,175,126)"/><path d="M-171.93232625368282,-8.840754989200706L-160.49059844012532,6.24650421542241L-154.40907384025212,7.6934751726613655zM116.0543440086927,-65.20052170782779L70.57671718979017,-115.4211567316868L59.92583101156342,-113.37993643755415zM116.0543440086927,-65.20052170782779L-70.18843862636531,-60.0769031331865L-78.80589177320988,-54.22313740812018z" style="fill:rgb(82,237,172)"/><path d="M-93.87166882530721,122.32964950381367L-147.09649350764556,8.472344021629095L-101.37233853399233,120.48900869337567z" style="fill:rgb(40,64,196)"/><path d="M-107.72588221981798,117.95947926806966L-154.40907384025212,7.6934751726613655L-160.49059844012532,6.24650421542241z" style="fill:rgb(32,65,185)"/><path d="M116.0543440086927,-65.20052170782779L80.80781739675298,-116.9601854262052L70.57671718979017,-115.4211567316868zM116.0543440086927,-65.20052170782779L-78.80589177320988,-54.22313740812018L-86.71352021521125,-48.32942893597872zM-171.93232625368282,-8.840754989200706L-154.40907384025212,7.6934751726613655L-147.09649350764556,8.472344021629095z" style="fill:rgb(82,237,172)"/><path d="M-115.70763158973907,-10.094224735528872L-115.24243758015959,-5.723496433540644L-64.65136599047119,102.90643171906991z" style="fill:rgb(245,175,126)"/><path d="M116.0543440086927,-65.20052170782779L90.52883632848517,-117.97340940705772L80.80781739675298,-116.9601854262052z" style="fill:rgb(82,237,172)"/><path d="M-61.283596142520295,113.52527918227557L-113.45914075992042,-1.8026398915595905L-63.602077628270806,108.42082549448443z" style="fill:rgb(11,75,140)"/><path d="M116.0543440086927,-65.20052170782779L-86.71352021521125,-48.32942893597872L-93.83198272970508,-42.44153333918259z" style="fill:rgb(82,237,172)"/><path d="M-85.28367325905283,123.43848107209892L-138.6072785725904,8.552773480648456L-93.87166882530721,122.32964950381367z" style="fill:rgb(49,63,205)"/><path d="M-114.89781667547359,-14.854596428563282L-115.93729782653648,-12.250717802250094L-115.70763158973907,-10.094224735528872z" style="fill:rgb(82,237,172)"/><path d="M-101.37233853399233,120.48900869337567L-147.09649350764556,8.472344021629095L-154.40907384025212,7.6934751726613655z" style="fill:rgb(40,64,196)"/><path d="M-171.93232625368282,-8.840754989200706L-147.09649350764556,8.472344021629095L-138.6072785725904,8.552773480648456zM116.0543440086927,-65.20052170782779L99.64744372035706,-118.43883535022479L90.52883632848517,-117.97340940705772zM116.0543440086927,-65.20052170782779L-93.83198272970508,-42.44153333918259L-100.08284024476306,-36.60725045259067z" style="fill:rgb(82,237,172)"/><path d="M179.5114635779348,14.700940115469121L138.7735819382004,-105.17595303866199L180.95032271374964,20.20957474374315z" style="fill:rgb(246,166,151)"/><path d="M-75.68869312684879,123.78128170396604L-129.01762753428997,7.913731082664537L-85.28367325905283,123.43848107209892z" style="fill:rgb(58,64,214)"/><path d="M-171.93232625368282,-8.840754989200706L-138.6072785725904,8.552773480648456L-129.01762753428997,7.913731082664537z" style="fill:rgb(82,237,172)"/><path d="M-63.602077628270806,108.42082549448443L-113.45914075992042,-1.8026398915595905L-115.24243758015959,-5.723496433540644z" style="fill:rgb(11,75,140)"/><path d="M-56.09404534916927,115.60862121077506L-53.89843708586874,122.08575571001748L-53.22695653358562,121.97052312239622z" style="fill:rgb(91,68,234)"/><path d="M116.0543440086927,-65.20052170782779L108.07035099891021,-118.33667142438836L99.64744372035706,-118.43883535022479z" style="fill:rgb(82,237,172)"/><path d="M-56.499164886947135,114.41362294450305L-53.22695653358562,121.97052312239622L-53.10331943930155,121.94938880158075z" style="fill:rgb(91,68,234)"/><path d="M-57.67537399997205,118.14968417630527L-110.32711724627912,1.6087495777285845L-61.283596142520295,113.52527918227557z" style="fill:rgb(15,71,152)"/><path d="M-116.86275473421874,-20.945742284564577L-137.73297515944833,-1.466452445302672L-114.25037279060624,3.5970467798840295zM116.0543440086927,-65.20052170782779L-100.08284024476306,-36.60725045259067L-105.3885715917999,-30.87725397648524z" style="fill:rgb(82,237,172)"/><path d="M-56.499164886947135,114.41362294450305L-56.09404534916927,115.60862121077506L-53.22695653358562,121.97052312239622z" style="fill:rgb(91,68,234)"/><path d="M-93.87166882530721,122.32964950381367L-138.6072785725904,8.552773480648456L-147.09649350764556,8.472344021629095z" style="fill:rgb(49,63,205)"/><path d="M-171.93232625368282,-8.840754989200706L-129.01762753428997,7.913731082664537L-118.42510961606891,6.5448158815365165z" style="fill:rgb(82,237,172)"/><path d="M-65.18706156592195,123.33420783883656L-118.42510961606891,6.5448158815365165L-75.68869312684879,123.78128170396604z" style="fill:rgb(69,65,222)"/><path d="M116.0543440086927,-65.20052170782779L115.70292706875547,-117.65048673307047L108.07035099891021,-118.33667142438836z" style="fill:rgb(82,237,172)"/><path d="M180.95032271374964,20.20957474374315L139.77429395895263,-100.89606274588564L181.08212086232174,26.23757707198223z" style="fill:rgb(245,161,162)"/><path d="M116.0543440086927,-65.20052170782779L-105.3885715917999,-30.87725397648524L-109.67374472673727,-25.304408991590666zM-171.93232625368282,-8.840754989200706L-118.42510961606891,6.5448158815365165L-108.76601789287665,4.779630157434637z" style="fill:rgb(82,237,172)"/><path d="M-100.07077714783149,24.02834687285299L-65.18706156592195,123.33420783883656L-55.68538069780333,122.28333385501973z" style="fill:rgb(79,66,228)"/><path d="M-85.28367325905283,123.43848107209892L-129.01762753428997,7.913731082664537L-138.6072785725904,8.552773480648456z" style="fill:rgb(58,64,214)"/><path d="M-61.283596142520295,113.52527918227557L-110.32711724627912,1.6087495777285845L-113.45914075992042,-1.8026398915595905z" style="fill:rgb(15,71,152)"/><path d="M-52.77161522232742,122.22507635616537L-105.83094053401337,4.452913794917821L-57.67537399997205,118.14968417630527z" style="fill:rgb(20,68,163)"/><path d="M-104.435358438255,11.603280997593252L-55.68538069780333,122.28333385501973L-54.54823060688523,122.15762490081795zM-104.435358438255,11.603280997593252L-54.54823060688523,122.15762490081795L-53.89843708586874,122.08575571001748z" style="fill:rgb(79,66,228)"/><path d="M116.0543440086927,-65.20052170782779L122.45062902875439,-116.36731258904567L115.70292706875547,-117.65048673307047zM116.0543440086927,-65.20052170782779L-109.67374472673727,-25.304408991590666L-112.8660461320701,-19.94442480131663z" style="fill:rgb(82,237,172)"/><path d="M180.95032271374964,20.20957474374315L138.7735819382004,-105.17595303866199L139.77429395895263,-100.89606274588564z" style="fill:rgb(246,166,151)"/><path d="M-56.09404534916927,115.60862121077506L-106.94893623926507,4.447592180361243L-53.89843708586874,122.08575571001748z" style="fill:rgb(91,68,234)"/><path d="M-115.24243758015959,-5.723496433540644L-115.00426611070876,-3.485636521664969L-113.45914075992042,-1.8026398915595905z" style="fill:rgb(82,237,172)"/><path d="M-56.499164886947135,114.41362294450305L-106.26175114995591,4.289453010002001L-56.09404534916927,115.60862121077506z" style="fill:rgb(91,68,234)"/><path d="M181.08212086232174,26.23757707198223L139.40664776763384,-96.06335712976507L179.85862954187286,32.7339428942097z" style="fill:rgb(242,155,174)"/><path d="M-75.68869312684879,123.78128170396604L-118.42510961606891,6.5448158815365165L-129.01762753428997,7.913731082664537z" style="fill:rgb(69,65,222)"/><path d="M116.0543440086927,-65.20052170782779L128.22016441970192,-114.47857790016063L122.45062902875439,-116.36731258904567zM116.0543440086927,-65.20052170782779L-112.8660461320701,-19.94442480131663L-114.89781667547359,-14.854596428563282z" style="fill:rgb(82,237,172)"/><path d="M-100.07077714783149,24.02834687285299L-118.42510961606891,6.5448158815365165L-65.18706156592195,123.33420783883656z" style="fill:rgb(79,66,228)"/><path d="M-46.58313861204101,125.68479800132762L-99.97263462468612,6.675673041838427L-52.77161522232742,122.22507635616537z" style="fill:rgb(26,66,175)"/><path d="M-57.67537399997205,118.14968417630527L-105.83094053401337,4.452913794917821L-110.32711724627912,1.6087495777285845z" style="fill:rgb(20,68,163)"/><path d="M-104.435358438255,11.603280997593252L-100.07077714783149,24.02834687285299L-55.68538069780333,122.28333385501973z" style="fill:rgb(79,66,228)"/><path d="M181.08212086232174,26.23757707198223L139.77429395895263,-100.89606274588564L139.40664776763384,-96.06335712976507z" style="fill:rgb(245,161,162)"/><path d="M116.0543440086927,-65.20052170782779L132.92044377630714,-111.98079006037398L128.22016441970192,-114.47857790016063zM116.0543440086927,-65.20052170782779L-114.89781667547359,-14.854596428563282L-115.70763158973907,-10.094224735528872z" style="fill:rgb(82,237,172)"/><path d="M-104.435358438255,11.603280997593252L-53.89843708586874,122.08575571001748L-106.94893623926507,4.447592180361243z" style="fill:rgb(79,66,228)"/><path d="M179.85862954187286,32.7339428942097L137.6242244879357,-90.71333124659806L177.24792702945015,39.63712407748115z" style="fill:rgb(239,149,184)"/><path d="M-56.09404534916927,115.60862121077506L-106.26175114995591,4.289453010002001L-106.94893623926507,4.447592180361243zM-56.499164886947135,114.41362294450305L-106.13536637148958,4.260302983026491L-106.26175114995591,4.289453010002001z" style="fill:rgb(91,68,234)"/><path d="M-115.00426611070876,-3.485636521664969L-114.25037279060624,3.5970467798840295L-108.76601789287665,4.779630157434637z" style="fill:rgb(82,237,172)"/><path d="M-39.139749681448365,128.4663534040274L-92.77309983737305,8.228131110702524L-46.58313861204101,125.68479800132762z" style="fill:rgb(32,65,185)"/><path d="M-52.77161522232742,122.22507635616537L-99.97263462468612,6.675673041838427L-105.83094053401337,4.452913794917821z" style="fill:rgb(26,66,175)"/><path d="M-115.00426611070876,-3.485636521664969L-108.76601789287665,4.779630157434637L-107.60986215464564,4.5683775504375275zM116.0543440086927,-65.20052170782779L136.4651388953608,-108.87666700957476L132.92044377630714,-111.98079006037398zM116.0543440086927,-65.20052170782779L-115.70763158973907,-10.094224735528872L-115.24243758015959,-5.723496433540644z" style="fill:rgb(82,237,172)"/><path d="M179.85862954187286,32.7339428942097L139.40664776763384,-96.06335712976507L137.6242244879357,-90.71333124659806z" style="fill:rgb(242,155,174)"/><path d="M-100.07077714783149,24.02834687285299L-108.76601789287665,4.779630157434637L-118.42510961606891,6.5448158815365165z" style="fill:rgb(79,66,228)"/><path d="M-110.32711724627912,1.6087495777285845L-108.72336592613378,3.355313340304583L-106.26175114995591,4.289453010002001z" style="fill:rgb(82,237,172)"/><path d="M177.24792702945015,39.63712407748115L134.3969698963998,-84.89130082268144L173.23595423655865,46.87608739435423z" style="fill:rgb(234,143,195)"/><path d="M-104.435358438255,11.603280997593252L-108.76601789287665,4.779630157434637L-100.07077714783149,24.02834687285299z" style="fill:rgb(79,66,228)"/><path d="M-110.32711724627912,1.6087495777285845L-106.26175114995591,4.289453010002001L-106.13536637148958,4.260302983026491zM-108.72336592613378,3.355313340304583L-107.60986215464564,4.5683775504375275L-106.94893623926507,4.447592180361243zM116.0543440086927,-65.20052170782779L138.7735819382004,-105.17595303866199L136.4651388953608,-108.87666700957476z" style="fill:rgb(82,237,172)"/><path d="M-104.435358438255,11.603280997593252L-107.60986215464564,4.5683775504375275L-108.76601789287665,4.779630157434637z" style="fill:rgb(79,66,228)"/><path d="M-108.72336592613378,3.355313340304583L-106.94893623926507,4.447592180361243L-106.26175114995591,4.289453010002001z" style="fill:rgb(82,237,172)"/><path d="M-104.435358438255,11.603280997593252L-106.94893623926507,4.447592180361243L-107.60986215464564,4.5683775504375275z" style="fill:rgb(80,66,228)"/><path d="M116.0543440086927,-65.20052170782779L-115.24243758015959,-5.723496433540644L-113.45914075992042,-1.8026398915595905z" style="fill:rgb(82,237,172)"/><path d="M-30.49171559257541,130.51289955878903L-84.27527047295148,9.0675405851179L-39.139749681448365,128.4663534040274z" style="fill:rgb(40,64,196)"/><path d="M-46.58313861204101,125.68479800132762L-92.77309983737305,8.228131110702524L-99.97263462468612,6.675673041838427z" style="fill:rgb(32,65,185)"/><path d="M177.24792702945015,39.63712407748115L137.6242244879357,-90.71333124659806L134.3969698963998,-84.89130082268144z" style="fill:rgb(239,149,184)"/><path d="M173.23595423655865,46.87608739435423L129.71460357567454,-78.65310063963992L167.8291352371916,54.36992708365356z" style="fill:rgb(228,137,204)"/><path d="M116.0543440086927,-65.20052170782779L139.77429395895263,-100.89606274588564L138.7735819382004,-105.17595303866199zM116.0543440086927,-65.20052170782779L-113.45914075992042,-1.8026398915595905L-110.32711724627912,1.6087495777285845z" style="fill:rgb(82,237,172)"/><path d="M-20.710372772405798,131.77581001838016L-74.54508312055582,9.159730459323983L-30.49171559257541,130.51289955878903z" style="fill:rgb(49,63,205)"/><path d="M-39.139749681448365,128.4663534040274L-84.27527047295148,9.0675405851179L-92.77309983737305,8.228131110702524z" style="fill:rgb(40,64,196)"/><path d="M116.0543440086927,-65.20052170782779L139.40664776763384,-96.06335712976507L139.77429395895263,-100.89606274588564z" style="fill:rgb(82,237,172)"/><path d="M173.23595423655865,46.87608739435423L134.3969698963998,-84.89130082268144L129.71460357567454,-78.65310063963992z" style="fill:rgb(234,143,195)"/><path d="M167.8291352371916,54.36992708365356L123.58853055728905,-72.06442535488311L161.05664142069656,62.02937018304565z" style="fill:rgb(221,130,213)"/><path d="M116.0543440086927,-65.20052170782779L-110.32711724627912,1.6087495777285845L-105.83094053401337,4.452913794917821z" style="fill:rgb(82,237,172)"/><path d="M-9.889826832941532,132.2158097053268L-63.67198359027353,8.480566232509977L-20.710372772405798,131.77581001838016z" style="fill:rgb(58,64,214)"/><path d="M116.0543440086927,-65.20052170782779L137.6242244879357,-90.71333124659806L139.40664776763384,-96.06335712976507z" style="fill:rgb(82,237,172)"/><path d="M-30.49171559257541,130.51289955878903L-74.54508312055582,9.159730459323983L-84.27527047295148,9.0675405851179z" style="fill:rgb(49,63,205)"/><path d="M116.0543440086927,-65.20052170782779L-105.83094053401337,4.452913794917821L-99.97263462468612,6.675673041838427z" style="fill:rgb(82,237,172)"/><path d="M161.05664142069656,62.02937018304565L116.0543440086927,-65.20052170782779L152.97119468952576,69.75717811212557z" style="fill:rgb(213,124,221)"/><path d="M167.8291352371916,54.36992708365356L129.71460357567454,-78.65310063963992L123.58853055728905,-72.06442535488311z" style="fill:rgb(228,137,204)"/><path d="M1.8543774704559686,131.80485564080547L-51.76999683858034,7.017504688746053L-9.889826832941532,132.2158097053268z" style="fill:rgb(69,65,222)"/><path d="M116.0543440086927,-65.20052170782779L134.3969698963998,-84.89130082268144L137.6242244879357,-90.71333124659806zM116.0543440086927,-65.20052170782779L-99.97263462468612,6.675673041838427L-92.77309983737305,8.228131110702524z" style="fill:rgb(82,237,172)"/><path d="M152.97119468952576,69.75717811212557L107.17329190228989,-58.14539314978723L143.6504413709105,77.45072632928208z" style="fill:rgb(204,117,228)"/><path d="M-20.710372772405798,131.77581001838016L-63.67198359027353,8.480566232509977L-74.54508312055582,9.159730459323983z" style="fill:rgb(58,64,214)"/><path d="M161.05664142069656,62.02937018304565L123.58853055728905,-72.06442535488311L116.0543440086927,-65.20052170782779z" style="fill:rgb(221,130,213)"/><path d="M14.385327193236943,130.52838369421463L-38.976269032144295,4.7711393403008495L1.8543774704559686,131.80485564080547z" style="fill:rgb(79,66,228)"/><path d="M116.0543440086927,-65.20052170782779L129.71460357567454,-78.65310063963992L134.3969698963998,-84.89130082268144zM116.0543440086927,-65.20052170782779L-92.77309983737305,8.228131110702524L-84.27527047295148,9.0675405851179z" style="fill:rgb(82,237,172)"/><path d="M143.6504413709105,77.45072632928208L97.03237454802564,-50.99101767160047L133.1965396163614,85.00366485940236z" style="fill:rgb(195,111,234)"/><path d="M27.546871375590708,128.3860349219283L-25.44991824810287,1.7554163007546246L14.385327193236943,130.52838369421463z" style="fill:rgb(91,68,234)"/><path d="M-9.889826832941532,132.2158097053268L-51.76999683858034,7.017504688746053L-63.67198359027353,8.480566232509977z" style="fill:rgb(69,65,222)"/><path d="M152.97119468952576,69.75717811212557L116.0543440086927,-65.20052170782779L107.17329190228989,-58.14539314978723z" style="fill:rgb(213,124,221)"/><path d="M133.1965396163614,85.00366485940236L85.74508588388314,-43.834561809184855L121.73535651216058,92.30825323244586z" style="fill:rgb(184,105,239)"/><path d="M116.0543440086927,-65.20052170782779L123.58853055728905,-72.06442535488311L129.71460357567454,-78.65310063963992zM116.0543440086927,-65.20052170782779L-84.27527047295148,9.0675405851179L-74.54508312055582,9.159730459323983z" style="fill:rgb(82,237,172)"/><path d="M41.166142962087264,125.39279148872942L-11.368637198321549,-2.0009790798567466L27.546871375590708,128.3860349219283z" style="fill:rgb(102,71,239)"/><path d="M121.73535651216058,92.30825323244586L73.44967146078102,-36.77726380504921L109.4141302860611,99.25786148210862z" style="fill:rgb(174,99,242)"/><path d="M1.8543774704559686,131.80485564080547L-38.976269032144295,4.7711393403008495L-51.76999683858034,7.017504688746053z" style="fill:rgb(79,66,228)"/><path d="M55.05742648550199,121.5791157013658L3.073754761140121,-6.4547296630957645L41.166142962087264,125.39279148872942z" style="fill:rgb(114,75,243)"/><path d="M143.6504413709105,77.45072632928208L107.17329190228989,-58.14539314978723L97.03237454802564,-50.99101767160047z" style="fill:rgb(204,117,228)"/><path d="M109.4141302860611,99.25786148210862L60.307297216115764,-29.921233202534392L96.39945069731463,105.75031127234566z" style="fill:rgb(162,93,245)"/><path d="M116.0543440086927,-65.20052170782779L-74.54508312055582,9.159730459323983L-63.67198359027353,8.480566232509977z" style="fill:rgb(82,237,172)"/><path d="M69.02598886078755,116.99123884964263L17.672732785947705,-11.548792330370546L55.05742648550199,121.5791157013658z" style="fill:rgb(126,79,245)"/><path d="M96.39945069731463,105.75031127234566L46.49816084094793,-23.367758344544754L82.87264727503216,111.69019071610981z" style="fill:rgb(151,88,246)"/><path d="M82.87264727503216,111.69019071610981L32.21799996281234,-17.213493516998092L69.02598886078755,116.99123884964263z" style="fill:rgb(139,83,246)"/><path d="M14.385327193236943,130.52838369421463L-25.44991824810287,1.7554163007546246L-38.976269032144295,4.7711393403008495z" style="fill:rgb(91,68,234)"/><path d="M133.1965396163614,85.00366485940236L97.03237454802564,-50.99101767160047L85.74508588388314,-43.834561809184855z" style="fill:rgb(195,111,234)"/><path d="M116.0543440086927,-65.20052170782779L-63.67198359027353,8.480566232509977L-51.76999683858034,7.017504688746053z" style="fill:rgb(82,237,172)"/><path d="M27.546871375590708,128.3860349219283L-11.368637198321549,-2.0009790798567466L-25.44991824810287,1.7554163007546246z" style="fill:rgb(102,71,239)"/><path d="M116.0543440086927,-65.20052170782779L97.03237454802564,-50.99101767160047L107.17329190228989,-58.14539314978723z" style="fill:rgb(82,237,172)"/><path d="M121.73535651216058,92.30825323244586L85.74508588388314,-43.834561809184855L73.44967146078102,-36.77726380504921z" style="fill:rgb(184,105,239)"/><path d="M116.0543440086927,-65.20052170782779L-51.76999683858034,7.017504688746053L-38.976269032144295,4.7711393403008495z" style="fill:rgb(82,237,172)"/><path d="M41.166142962087264,125.39279148872942L3.073754761140121,-6.4547296630957645L-11.368637198321549,-2.0009790798567466z" style="fill:rgb(114,75,243)"/><path d="M109.4141302860611,99.25786148210862L73.44967146078102,-36.77726380504921L60.307297216115764,-29.921233202534392z" style="fill:rgb(174,99,242)"/><path d="M116.0543440086927,-65.20052170782779L85.74508588388314,-43.834561809184855L97.03237454802564,-50.99101767160047zM116.0543440086927,-65.20052170782779L-38.976269032144295,4.7711393403008495L-25.44991824810287,1.7554163007546246z" style="fill:rgb(82,237,172)"/><path d="M55.05742648550199,121.5791157013658L17.672732785947705,-11.548792330370546L3.073754761140121,-6.4547296630957645z" style="fill:rgb(126,79,245)"/><path d="M96.39945069731463,105.75031127234566L60.307297216115764,-29.921233202534392L46.49816084094793,-23.367758344544754z" style="fill:rgb(162,93,245)"/><path d="M69.02598886078755,116.99123884964263L32.21799996281234,-17.213493516998092L17.672732785947705,-11.548792330370546z" style="fill:rgb(139,83,246)"/><path d="M82.87264727503216,111.69019071610981L46.49816084094793,-23.367758344544754L32.21799996281234,-17.213493516998092z" style="fill:rgb(151,88,246)"/><path d="M116.0543440086927,-65.20052170782779L73.44967146078102,-36.77726380504921L85.74508588388314,-43.834561809184855zM116.0543440086927,-65.20052170782779L-25.44991824810287,1.7554163007546246L-11.368637198321549,-2.0009790798567466zM116.0543440086927,-65.20052170782779L60.307297216115764,-29.921233202534392L73.44967146078102,-36.77726380504921zM116.0543440086927,-65.20052170782779L-11.368637198321549,-2.0009790798567466L3.073754761140121,-6.4547296630957645zM116.0543440086927,-65.20052170782779L46.49816084094793,-23.367758344544754L60.307297216115764,-29.921233202534392zM116.0543440086927,-65.20052170782779L3.073754761140121,-6.4547296630957645L17.672732785947705,-11.548792330370546zM116.0543440086927,-65.20052170782779L32.21799996281234,-17.213493516998092L46.49816084094793,-23.367758344544754zM116.0543440086927,-65.20052170782779L17.672732785947705,-11.548792330370546L32.21799996281234,-17.213493516998092z" style="fill:rgb(82,237,172)"/></svg>