<svg viewBox="-250 -250 500 500" width="500" height="500" xmlns="http://www.w3.org/2000/svg"><path d="M-139.77976690870324,-31.4961602378055L-65.39429460587023,-72.45276144973352L-73.90966784811859,-69.10078361336578zM-139.77976690870324,-31.4961602378055L-73.90966784811859,-69.10078361336578L-82.35954673971227,-65.50346615821677zM-139.77976690870324,-31.4961602378055L-56.879416733392866,-75.53313017288198L-65.39429460587023,-72.45276144973352zM-139.77976690870324,-31.4961602378055L-82.35954673971227,-65.50346615821677L-90.677895086292,-61.68853318738763zM-139.77976690870324,-31.4961602378055L-48.431467127195454,-78.31680060394346L-56.879416733392866,-75.53313017288198zM-139.77976690870324,-31.4961602378055L-90.677895086292,-61.68853318738763L-98.79934093721815,-57.684894169626396zM-139.77976690870324,-31.4961602378055L-40.11723590909354,-80.78004241523628L-48.431467127195454,-78.31680060394346zM-139.77976690870324,-31.4961602378055L-98.79934093721815,-57.684894169626396L-106.65873839856434,-53.52276293633032zM-139.77976690870324,-31.4961602378055L-32.00407076892744,-82.90065900454587L-40.11723590909354,-80.78004241523628zM-139.77976690870324,-31.4961602378055L-106.65873839856434,-53.52276293633032L-114.19141103248312,-49.23396442824278zM-139.77976690870324,-31.4961602378055L-24.159205526974223,-84.65782391815196L-32.00407076892744,-82.90065900454587zM-139.77976690870324,-31.4961602378055L-114.19141103248312,-49.23396442824278L-121.33300620559453,-44.851627040931824zM-139.77976690870324,-31.4961602378055L-16.650343176273278,-86.03238876868161L-24.159205526974223,-84.65782391815196zM-139.77976690870324,-31.4961602378055L-121.33300620559453,-44.851627040931824L-128.0198997474014,-40.41027004061417zM-139.77976690870324,-31.4961602378055L-9.545011320744049,-87.00693362565518L-16.650343176273278,-86.03238876868161zM-139.77976690870324,-31.4961602378055L-128.0198997474014,-40.41027004061417L-134.18937558858133,-35.94587736371422zM-139.77976690870324,-31.4961602378055L-2.9106116528634383,-87.56640103300714L-9.545011320744049,-87.00693362565518zM-139.77976690870324,-31.4961602378055L3.1864125757930206,-87.6978965626867L-2.9106116528634383,-87.56640103300714zM-139.77976690870324,-31.4961602378055L8.680559309900417,-87.39104099535516L3.1864125757930206,-87.6978965626867zM-139.77976690870324,-31.4961602378055L-144.7315083012371,-27.09988357773559L-148.98667205779822,-22.797339993959156zM-139.77976690870324,-31.4961602378055L13.508198382004231,-86.63880550049092L8.680559309900417,-87.39104099535516zM-139.77976690870324,-31.4961602378055L-148.98667205779822,-22.797339993959156L-152.490952550588,-18.629721383853582zM-139.77976690870324,-31.4961602378055L17.60823038983101,-85.43749145083747L13.508198382004231,-86.63880550049092zM-139.77976690870324,-31.4961602378055L-152.490952550588,-18.629721383853582L-154.79509070355093,-15.227351271927915zM-139.77976690870324,-31.4961602378055L18.305289448853088,-85.09047842658683L17.60823038983101,-85.43749145083747z" style="fill:rgb(82,237,172)"/><path d="M50.13839940919513,-13.780719086134885L51.881613374889135,10.714031120566817L58.59868733066158,8.108751462912176z" style="fill:rgb(139,83,246)"/><path d="M-154.79509070355093,-15.227351271927915L-155.19325670972057,-14.639447880394505L-157.04734585660404,-10.869153271201842z" style="fill:rgb(82,237,172)"/><path d="M24.990577494241773,-79.1629038055588L58.59868733066158,8.108751462912176L58.35791543474729,7.178847038192378z" style="fill:rgb(246,171,139)"/><path d="M51.881613374889135,10.714031120566817L9.017374781576692,-71.7450867078575L42.99166389896156,14.562773632520738z" style="fill:rgb(151,88,246)"/><path d="M42.99166389896156,14.562773632520738L0.033926126360758174,-67.5749228317287L34.350527521816495,18.7130213308928z" style="fill:rgb(162,93,245)"/><path d="M-154.79509070355093,-15.227351271927915L-157.04734585660404,-10.869153271201842L-158.01281148984916,-7.361895378984683z" style="fill:rgb(82,237,172)"/><path d="M50.13839940919513,-13.780719086134885L18.226567555968177,-75.68192151190284L51.881613374889135,10.714031120566817z" style="fill:rgb(139,83,246)"/><path d="M34.350527521816495,18.7130213308928L-8.65484513442578,-63.201959426984075L26.025480284979828,23.134355304418744z" style="fill:rgb(174,99,242)"/><path d="M26.025480284979828,23.134355304418744L-16.980358720892422,-58.658109398644044L18.08282555095198,27.79423908212638z" style="fill:rgb(184,105,239)"/><path d="M25.161762776179945,-78.40269935488469L20.92315591082336,-83.78730133299365L18.305289448853088,-85.09047842658683z" style="fill:rgb(82,237,172)"/><path d="M24.990577494241773,-79.1629038055588L34.05188987060395,-55.4011087476444L58.59868733066158,8.108751462912176z" style="fill:rgb(246,171,139)"/><path d="M-154.79509070355093,-15.227351271927915L-158.01281148984916,-7.361895378984683L-158.0559024763847,-4.160282016360661z" style="fill:rgb(82,237,172)"/><path d="M18.08282555095198,27.79423908212638L-24.87498048966862,-53.97697778379241L10.58826869913571,32.65864057538127z" style="fill:rgb(195,111,234)"/><path d="M18.226567555968177,-75.68192151190284L9.017374781576692,-71.7450867078575L51.881613374889135,10.714031120566817z" style="fill:rgb(151,88,246)"/><path d="M25.161762776179945,-78.40269935488469L23.399693565604498,-81.69267126273405L20.92315591082336,-83.78730133299365z" style="fill:rgb(82,237,172)"/><path d="M9.017374781576692,-71.7450867078575L0.033926126360758174,-67.5749228317287L42.99166389896156,14.562773632520738z" style="fill:rgb(162,93,245)"/><path d="M25.161762776179945,-78.40269935488469L18.305289448853088,-85.09047842658683L-11.236370861019871,-64.12326256789757z" style="fill:rgb(82,237,172)"/><path d="M-115.27934983171922,86.39439598103998L-155.28257306937167,1.1614084076050515L-117.43028270095982,83.27549268719103z" style="fill:rgb(15,71,152)"/><path d="M0.033926126360758174,-67.5749228317287L-8.65484513442578,-63.201959426984075L34.350527521816495,18.7130213308928z" style="fill:rgb(174,99,242)"/><path d="M25.161762776179945,-78.40269935488469L18.226567555968177,-75.68192151190284L50.13839940919513,-13.780719086134885z" style="fill:rgb(139,83,246)"/><path d="M10.58826869913571,32.65864057538127L-32.271521755092365,-49.19357032682005L3.6064937793029195,37.691360232045994z" style="fill:rgb(204,117,228)"/><path d="M-154.79509070355093,-15.227351271927915L-158.0559024763847,-4.160282016360661L-157.15128569667633,-1.305845788363331z" style="fill:rgb(82,237,172)"/><path d="M-8.65484513442578,-63.201959426984075L-16.980358720892422,-58.658109398644044L26.025480284979828,23.134355304418744z" style="fill:rgb(184,105,239)"/><path d="M-139.77976690870324,-31.4961602378055L-154.79509070355093,-15.227351271927915L-96.41438017447044,-3.668068616368476zM25.161762776179945,-78.40269935488469L24.990577494241773,-79.1629038055588L23.399693565604498,-81.69267126273405zM-139.77976690870324,-31.4961602378055L-96.41438017447044,-3.668068616368476L18.305289448853088,-85.09047842658683z" style="fill:rgb(82,237,172)"/><path d="M34.05188987060395,-55.4011087476444L24.990577494241773,-79.1629038055588L25.161762776179945,-78.40269935488469z" style="fill:rgb(246,171,139)"/><path d="M3.6064937793029195,37.691360232045994L-39.103691987458376,-44.344478155406115L-2.799210180545469,42.85441833191761z" style="fill:rgb(213,124,221)"/><path d="M-16.980358720892422,-58.658109398644044L-24.87498048966862,-53.97697778379241L18.08282555095198,27.79423908212638z" style="fill:rgb(195,111,234)"/><path d="M-154.79509070355093,-15.227351271927915L-157.15128569667633,-1.305845788363331L-155.28257306937167,1.1614084076050515z" style="fill:rgb(82,237,172)"/><path d="M-117.43028270095982,83.27549268719103L-155.28257306937167,1.1614084076050515L-157.15128569667633,-1.305845788363331z" style="fill:rgb(15,71,152)"/><path d="M-112.1957109703167,89.09441668464777L-152.4443371366982,3.203780089169681L-115.27934983171922,86.39439598103998z" style="fill:rgb(20,68,163)"/><path d="M18.226567555968177,-75.68192151190284L13.522772179007868,-73.83657654763546L9.017374781576692,-71.7450867078575zM25.40786652390599,-78.49926515433916L18.226567555968177,-75.68192151190284L9.017374781576692,-71.7450867078575zM13.522772179007868,-73.83657654763546L-0.9731373042510856,-68.14963923642328L-9.068365695781411,-63.349598065104zM25.40786652390599,-78.49926515433916L9.017374781576692,-71.7450867078575L0.033926126360758174,-67.5749228317287z" style="fill:rgb(82,237,172)"/><path d="M-24.87498048966862,-53.97697778379241L-32.271521755092365,-49.19357032682005L10.58826869913571,32.65864057538127z" style="fill:rgb(204,117,228)"/><path d="M25.40786652390599,-78.49926515433916L0.033926126360758174,-67.5749228317287L-8.65484513442578,-63.201959426984075zM0.033926126360758174,-67.5749228317287L-9.068365695781411,-63.349598065104L-13.036737642573742,-60.996579602571124z" style="fill:rgb(82,237,172)"/><path d="M-2.799210180545469,42.85441833191761L-45.306178596110605,-39.46793571516127L-8.566679329542575,48.10738396933047z" style="fill:rgb(221,130,213)"/><path d="M-0.9731373042510856,-68.14963923642328L-11.236370861019871,-64.12326256789757L-28.866862377885905,-51.609991447924784zM25.40786652390599,-78.49926515433916L-8.65484513442578,-63.201959426984075L-16.980358720892422,-58.658109398644044zM-154.79509070355093,-15.227351271927915L-155.28257306937167,1.1614084076050515L-152.4443371366982,3.203780089169681zM-8.65484513442578,-63.201959426984075L-13.036737642573742,-60.996579602571124L-16.980358720892422,-58.658109398644044zM25.40786652390599,-78.49926515433916L-16.980358720892422,-58.658109398644044L-24.87498048966862,-53.97697778379241z" style="fill:rgb(82,237,172)"/><path d="M-32.271521755092365,-49.19357032682005L-39.103691987458376,-44.344478155406115L3.6064937793029195,37.691360232045994z" style="fill:rgb(213,124,221)"/><path d="M-108.19020843490861,91.33448997730258L-148.64259471335532,4.7869714090006585L-112.1957109703167,89.09441668464777z" style="fill:rgb(26,66,175)"/><path d="M-115.27934983171922,86.39439598103998L-152.4443371366982,3.203780089169681L-155.28257306937167,1.1614084076050515z" style="fill:rgb(20,68,163)"/><path d="M25.40786652390599,-78.49926515433916L-24.87498048966862,-53.97697778379241L-32.271521755092365,-49.19357032682005z" style="fill:rgb(82,237,172)"/><path d="M-8.566679329542575,48.10738396933047L-50.81535064409775,-34.60419930544898L-13.635474156660713,53.407971380262055z" style="fill:rgb(228,137,204)"/><path d="M-154.79509070355093,-15.227351271927915L-152.4443371366982,3.203780089169681L-148.64259471335532,4.7869714090006585z" style="fill:rgb(82,237,172)"/><path d="M-39.103691987458376,-44.344478155406115L-45.306178596110605,-39.46793571516127L-2.799210180545469,42.85441833191761z" style="fill:rgb(221,130,213)"/><path d="M25.40786652390599,-78.49926515433916L-32.271521755092365,-49.19357032682005L-39.103691987458376,-44.344478155406115zM-24.87498048966862,-53.97697778379241L-28.866862377885905,-51.609991447924784L-32.271521755092365,-49.19357032682005zM-154.79509070355093,-15.227351271927915L-148.64259471335532,4.7869714090006585L-143.89632787899512,5.881088558122509z" style="fill:rgb(82,237,172)"/><path d="M-103.2858971285818,93.07741501793988L-143.89632787899512,5.881088558122509L-108.19020843490861,91.33448997730258z" style="fill:rgb(32,65,185)"/><path d="M25.40786652390599,-78.49926515433916L-39.103691987458376,-44.344478155406115L-45.306178596110605,-39.46793571516127z" style="fill:rgb(82,237,172)"/><path d="M-112.1957109703167,89.09441668464777L-148.64259471335532,4.7869714090006585L-152.4443371366982,3.203780089169681z" style="fill:rgb(26,66,175)"/><path d="M-13.635474156660713,53.407971380262055L-55.56924602640285,-29.794844073224105L-17.94788169701706,58.711735765735405z" style="fill:rgb(234,143,195)"/><path d="M-45.306178596110605,-39.46793571516127L-50.81535064409775,-34.60419930544898L-8.566679329542575,48.10738396933047z" style="fill:rgb(228,137,204)"/><path d="M25.40786652390599,-78.49926515433916L-45.306178596110605,-39.46793571516127L-50.81535064409775,-34.60419930544898zM-154.79509070355093,-15.227351271927915L-143.89632787899512,5.881088558122509L-138.2381535520073,6.460981174129022z" style="fill:rgb(82,237,172)"/><path d="M-97.51869524997021,94.29072782915334L-138.2381535520073,6.460981174129022L-103.2858971285818,93.07741501793988z" style="fill:rgb(40,64,196)"/><path d="M-108.19020843490861,91.33448997730258L-143.89632787899512,5.881088558122509L-148.64259471335532,4.7869714090006585z" style="fill:rgb(32,65,185)"/><path d="M-17.94788169701706,58.711735765735405L-59.50867300956402,-25.08331476571655L-21.448629392405984,63.972062092859936z" style="fill:rgb(239,149,184)"/><path d="M25.40786652390599,-78.49926515433916L-50.81535064409775,-34.60419930544898L-55.56924602640285,-29.794844073224105z" style="fill:rgb(82,237,172)"/><path d="M-50.81535064409775,-34.60419930544898L-55.56924602640285,-29.794844073224105L-13.635474156660713,53.407971380262055z" style="fill:rgb(234,143,195)"/><path d="M-154.79509070355093,-15.227351271927915L-138.2381535520073,6.460981174129022L-131.71500332591782,6.507650705311505zM-39.103691987458376,-44.344478155406115L-46.085939332913036,-39.38877275514144L-48.45366839928645,-36.99341241547861z" style="fill:rgb(82,237,172)"/><path d="M-90.93827920043735,94.94813210666088L-131.71500332591782,6.507650705311505L-97.51869524997021,94.29072782915334z" style="fill:rgb(49,63,205)"/><path d="M-154.79509070355093,-15.227351271927915L-131.71500332591782,6.507650705311505L-124.38794735887296,6.008931467088581zM-45.306178596110605,-39.46793571516127L-48.45366839928645,-36.99341241547861L-50.81535064409775,-34.60419930544898zM25.40786652390599,-78.49926515433916L-55.56924602640285,-29.794844073224105L-59.50867300956402,-25.08331476571655z" style="fill:rgb(82,237,172)"/><path d="M-103.2858971285818,93.07741501793988L-138.2381535520073,6.460981174129022L-143.89632787899512,5.881088558122509z" style="fill:rgb(40,64,196)"/><path d="M-21.448629392405984,63.972062092859936L-62.57765291466395,-20.51427772931983L-24.08642329041512,69.14022083665523z" style="fill:rgb(242,155,174)"/><path d="M-55.56924602640285,-29.794844073224105L-59.50867300956402,-25.08331476571655L-17.94788169701706,58.711735765735405z" style="fill:rgb(239,149,184)"/><path d="M-154.79509070355093,-15.227351271927915L-124.38794735887296,6.008931467088581L-116.33275095213031,4.96023098503304zM25.40786652390599,-78.49926515433916L-59.50867300956402,-25.08331476571655L-62.57765291466395,-20.51427772931983z" style="fill:rgb(82,237,172)"/><path d="M-83.60807818961709,95.02995683574679L-124.38794735887296,6.008931467088581L-90.93827920043735,94.94813210666088z" style="fill:rgb(58,64,214)"/><path d="M-154.79509070355093,-15.227351271927915L-116.33275095213031,4.96023098503304L-107.63862998782011,3.3652723037616843z" style="fill:rgb(82,237,172)"/><path d="M-97.51869524997021,94.29072782915334L-131.71500332591782,6.507650705311505L-138.2381535520073,6.460981174129022z" style="fill:rgb(49,63,205)"/><path d="M-154.79509070355093,-15.227351271927915L-107.63862998782011,3.3652723037616843L-98.40764290122843,1.2359590502832962z" style="fill:rgb(82,237,172)"/><path d="M-24.08642329041512,69.14022083665523L-64.72474944518665,-16.13404224354059L-25.814718525584258,74.16590743283484z" style="fill:rgb(245,161,162)"/><path d="M-59.50867300956402,-25.08331476571655L-62.57765291466395,-20.51427772931983L-21.448629392405984,63.972062092859936z" style="fill:rgb(242,155,174)"/><path d="M25.40786652390599,-78.49926515433916L-62.57765291466395,-20.51427772931983L-64.72474944518665,-16.13404224354059z" style="fill:rgb(82,237,172)"/><path d="M-75.6045715524989,94.5239566885378L-116.33275095213031,4.96023098503304L-83.60807818961709,95.02995683574679z" style="fill:rgb(69,65,222)"/><path d="M-154.79509070355093,-15.227351271927915L-98.40764290122843,1.2359590502832962L-88.75264711010242,-1.4068643321662633zM-154.79509070355093,-15.227351271927915L-88.75264711010242,-1.4068643321662633L-87.29906943295957,-1.8632797279981161zM-55.56924602640285,-29.794844073224105L-57.98641149454992,-27.349498227281085L-59.50867300956402,-25.08331476571655z" style="fill:rgb(82,237,172)"/><path d="M-90.93827920043735,94.94813210666088L-124.38794735887296,6.008931467088581L-131.71500332591782,6.507650705311505z" style="fill:rgb(58,64,214)"/><path d="M-52.79153667689284,76.18148185209145L-48.504478395155665,89.48814799237445L-47.08897162131563,89.07886423673585z" style="fill:rgb(114,75,243)"/><path d="M-67.01714024879278,93.4266100301089L-107.63862998782011,3.3652723037616843L-75.6045715524989,94.5239566885378z" style="fill:rgb(79,66,228)"/><path d="M25.40786652390599,-78.49926515433916L-64.72474944518665,-16.13404224354059L-65.90365092339704,-11.989450288153753z" style="fill:rgb(82,237,172)"/><path d="M-62.57765291466395,-20.51427772931983L-64.72474944518665,-16.13404224354059L-24.08642329041512,69.14022083665523z" style="fill:rgb(245,161,162)"/><path d="M-25.814718525584258,74.16590743283484L-65.90365092339704,-11.989450288153753L-26.592405701166356,78.99732704795515z" style="fill:rgb(246,166,151)"/><path d="M-35.673935299938265,61.738990992327814L-28.986501264880395,83.36721140406672L-26.69748951856155,82.4836397302741zM-36.434762845634374,59.27795098233774L-26.69748951856155,82.4836397302741L-26.439489114736254,82.38402589669931z" style="fill:rgb(139,83,246)"/><path d="M-57.946736075606225,91.74316832897549L-98.40764290122843,1.2359590502832962L-67.01714024879278,93.4266100301089z" style="fill:rgb(91,68,234)"/><path d="M-83.60807818961709,95.02995683574679L-116.33275095213031,4.96023098503304L-124.38794735887296,6.008931467088581z" style="fill:rgb(69,65,222)"/><path d="M-57.98641149454992,-27.349498227281085L-62.96812643214923,-22.30972989901551L-64.14064571952122,-18.187455352508753z" style="fill:rgb(82,237,172)"/><path d="M-36.434762845634374,59.27795098233774L-35.673935299938265,61.738990992327814L-26.69748951856155,82.4836397302741z" style="fill:rgb(139,83,246)"/><path d="M-70.89532978020229,19.989386216637016L-47.08897162131563,89.07886423673585L-41.27067846945919,87.39674797171719z" style="fill:rgb(114,75,243)"/><path d="M-55.48107844667937,15.249173601048044L-26.439489114736254,82.38402589669931L-26.592405701166356,78.99732704795515z" style="fill:rgb(246,171,139)"/><path d="M25.40786652390599,-78.49926515433916L-65.90365092339704,-11.989450288153753L-66.07489720484871,-8.128144683788056z" style="fill:rgb(82,237,172)"/><path d="M-70.89532978020229,19.989386216637016L-41.27067846945919,87.39674797171719L-38.80939819427276,86.68520572231262z" style="fill:rgb(114,75,243)"/><path d="M-48.504478395155665,89.48814799237445L-88.75264711010242,-1.4068643321662633L-57.946736075606225,91.74316832897549z" style="fill:rgb(102,71,239)"/><path d="M126.84502831453031,-56.95085118044924L27.591823190091816,-79.35601940683219L25.40786652390599,-78.49926515433916z" style="fill:rgb(82,237,172)"/><path d="M-70.89532978020229,19.989386216637016L-52.79153667689284,76.18148185209145L-47.08897162131563,89.07886423673585z" style="fill:rgb(114,75,243)"/><path d="M126.84502831453031,-56.95085118044924L37.04287063727779,-82.73946546822019L27.591823190091816,-79.35601940683219zM126.84502831453031,-56.95085118044924L46.50834694605942,-85.80539307078355L37.04287063727779,-82.73946546822019z" style="fill:rgb(82,237,172)"/><path d="M-75.6045715524989,94.5239566885378L-107.63862998782011,3.3652723037616843L-116.33275095213031,4.96023098503304z" style="fill:rgb(79,66,228)"/><path d="M-52.79153667689284,76.18148185209145L-88.75264711010242,-1.4068643321662633L-48.504478395155665,89.48814799237445z" style="fill:rgb(114,75,243)"/><path d="M-81.324021693342,-3.7397083012137564L-46.085939332913036,-39.38877275514144L-96.41438017447044,-3.668068616368476zM126.84502831453031,-56.95085118044924L55.91614756381675,-88.52827416477407L46.50834694605942,-85.80539307078355z" style="fill:rgb(82,237,172)"/><path d="M-64.72474944518665,-16.13404224354059L-65.90365092339704,-11.989450288153753L-25.814718525584258,74.16590743283484z" style="fill:rgb(246,166,151)"/><path d="M-28.986501264880395,83.36721140406672L-68.66700942241275,-8.106540928687373L-38.80939819427276,86.68520572231262z" style="fill:rgb(126,79,245)"/><path d="M126.84502831453031,-56.95085118044924L65.19323684488839,-90.88396032263749L55.91614756381675,-88.52827416477407zM25.40786652390599,-78.49926515433916L-66.07489720484871,-8.128144683788056L-65.20680435453227,-4.597610174227032z" style="fill:rgb(82,237,172)"/><path d="M-67.01714024879278,93.4266100301089L-98.40764290122843,1.2359590502832962L-107.63862998782011,3.3652723037616843z" style="fill:rgb(91,68,234)"/><path d="M-35.673935299938265,61.738990992327814L-68.66700942241275,-8.106540928687373L-28.986501264880395,83.36721140406672z" style="fill:rgb(139,83,246)"/><path d="M-62.57765291466395,-20.51427772931983L-64.14064571952122,-18.187455352508753L-64.72474944518665,-16.13404224354059zM126.84502831453031,-56.95085118044924L74.26534934740026,-92.8496057979548L65.19323684488839,-90.88396032263749zM-62.96812643214923,-22.30972989901551L-68.24847918267538,-16.96782838280088L-66.50473691204853,-9.87637974984941z" style="fill:rgb(82,237,172)"/><path d="M-36.434762845634374,59.27795098233774L-66.29734196244615,-9.032699030055559L-35.673935299938265,61.738990992327814z" style="fill:rgb(139,83,246)"/><path d="M-57.946736075606225,91.74316832897549L-88.75264711010242,-1.4068643321662633L-98.40764290122843,1.2359590502832962z" style="fill:rgb(102,71,239)"/><path d="M-66.03014219965449,-9.137099081016263L-55.48107844667937,15.249173601048044L-26.592405701166356,78.99732704795515z" style="fill:rgb(246,171,139)"/><path d="M126.84502831453031,-56.95085118044924L83.05727711792221,-94.40390964985717L74.26534934740026,-92.8496057979548z" style="fill:rgb(82,237,172)"/><path d="M-70.89532978020229,19.989386216637016L-38.80939819427276,86.68520572231262L-78.79609848708758,-4.533603293787688z" style="fill:rgb(114,75,243)"/><path d="M-66.03014219965449,-9.137099081016263L-26.592405701166356,78.99732704795515L-65.90365092339704,-11.989450288153753z" style="fill:rgb(246,171,139)"/><path d="M-70.89532978020229,19.989386216637016L-87.29906943295957,-1.8632797279981161L-52.79153667689284,76.18148185209145z" style="fill:rgb(114,75,243)"/><path d="M25.40786652390599,-78.49926515433916L-65.20680435453227,-4.597610174227032L-63.277107817670775,-1.4444894318524786z" style="fill:rgb(82,237,172)"/><path d="M-52.79153667689284,76.18148185209145L-87.29906943295957,-1.8632797279981161L-88.75264711010242,-1.4068643321662633z" style="fill:rgb(114,75,243)"/><path d="M126.84502831453031,-56.95085118044924L91.49285908409607,-95.52716576025868L83.05727711792221,-94.40390964985717z" style="fill:rgb(82,237,172)"/><path d="M-38.80939819427276,86.68520572231262L-68.66700942241275,-8.106540928687373L-78.79609848708758,-4.533603293787688z" style="fill:rgb(126,79,245)"/><path d="M-35.673935299938265,61.738990992327814L-66.29734196244615,-9.032699030055559L-68.66700942241275,-8.106540928687373z" style="fill:rgb(139,83,246)"/><path d="M126.84502831453031,-56.95085118044924L99.49538371820489,-96.20198591032008L91.49285908409607,-95.52716576025868zM25.40786652390599,-78.49926515433916L-63.277107817670775,-1.4444894318524786L-60.27454483522569,1.2859432299021682z" style="fill:rgb(82,237,172)"/><path d="M-36.434762845634374,59.27795098233774L-66.03014219965449,-9.137099081016263L-66.29734196244615,-9.032699030055559z" style="fill:rgb(139,83,246)"/><path d="M-78.79609848708758,-4.533603293787688L-68.24847918267538,-16.96782838280088L-81.324021693342,-3.7397083012137564zM-78.79609848708758,-4.533603293787688L-66.29734196244615,-9.032699030055559L-68.24847918267538,-16.96782838280088zM-81.324021693342,-3.7397083012137564L-96.41438017447044,-3.668068616368476L-87.29906943295957,-1.8632797279981161z" style="fill:rgb(82,237,172)"/><path d="M-70.89532978020229,19.989386216637016L-81.324021693342,-3.7397083012137564L-87.29906943295957,-1.8632797279981161z" style="fill:rgb(114,75,243)"/><path d="M-22.92256397403502,91.7939809464297L-63.277107817670775,-1.4444894318524786L-25.16760557118405,87.86478005075443z" style="fill:rgb(11,75,140)"/><path d="M-70.89532978020229,19.989386216637016L-78.79609848708758,-4.533603293787688L-81.324021693342,-3.7397083012137564z" style="fill:rgb(114,75,243)"/><path d="M126.84502831453031,-56.95085118044924L106.98743344481451,-96.41310209127826L99.49538371820489,-96.20198591032008zM-65.90365092339704,-11.989450288153753L-66.50473691204853,-9.87637974984941L-66.29734196244615,-9.032699030055559zM-65.90365092339704,-11.989450288153753L-66.29734196244615,-9.032699030055559L-66.03014219965449,-9.137099081016263zM25.40786652390599,-78.49926515433916L-60.27454483522569,1.2859432299021682L-56.20015200501534,3.5506712787485206zM-78.79609848708758,-4.533603293787688L-68.66700942241275,-8.106540928687373L-66.29734196244615,-9.032699030055559z" style="fill:rgb(82,237,172)"/><path d="M171.7852058499923,11.889151783649892L138.8416898226128,-84.29724155104064L172.87226839617662,16.30711679622149z" style="fill:rgb(246,166,151)"/><path d="M126.84502831453031,-56.95085118044924L113.89166779103583,-96.14767861933663L106.98743344481451,-96.41310209127826z" style="fill:rgb(82,237,172)"/><path d="M-25.16760557118405,87.86478005075443L-63.277107817670775,-1.4444894318524786L-65.20680435453227,-4.597610174227032z" style="fill:rgb(11,75,140)"/><path d="M-19.644254986515676,95.31655540114795L-60.27454483522569,1.2859432299021682L-22.92256397403502,91.7939809464297z" style="fill:rgb(15,71,152)"/><path d="M25.40786652390599,-78.49926515433916L-56.20015200501534,3.5506712787485206L-51.068482060578546,5.310207829942157zM126.84502831453031,-56.95085118044924L120.13166119426192,-95.39634079498975L113.89166779103583,-96.14767861933663z" style="fill:rgb(82,237,172)"/><path d="M172.87226839617662,16.30711679622149L139.6423465471049,-80.66761448715744L172.9020808526417,21.123335772361006z" style="fill:rgb(245,161,162)"/><path d="M25.40786652390599,-78.49926515433916L-51.068482060578546,5.310207829942157L-44.90914538466342,6.529777148600265zM126.84502831453031,-56.95085118044924L125.63212879107743,-94.153132356849L120.13166119426192,-95.39634079498975z" style="fill:rgb(82,237,172)"/><path d="M-22.92256397403502,91.7939809464297L-60.27454483522569,1.2859432299021682L-63.277107817670775,-1.4444894318524786z" style="fill:rgb(15,71,152)"/><path d="M-15.33913040762868,98.38202685146135L-56.20015200501534,3.5506712787485206L-19.644254986515676,95.31655540114795z" style="fill:rgb(20,68,163)"/><path d="M172.87226839617662,16.30711679622149L138.8416898226128,-84.29724155104064L139.6423465471049,-80.66761448715744z" style="fill:rgb(246,166,151)"/><path d="M25.40786652390599,-78.49926515433916L-44.90914538466342,6.529777148600265L-37.767690490575795,7.1797808902289715zM126.84502831453031,-56.95085118044924L130.32004289284836,-92.4162450204943L125.63212879107743,-94.153132356849z" style="fill:rgb(82,237,172)"/><path d="M172.9020808526417,21.123335772361006L139.34794708701702,-76.61516325175504L171.8442619061202,26.294916253750447z" style="fill:rgb(242,155,174)"/><path d="M25.40786652390599,-78.49926515433916L-37.767690490575795,7.1797808902289715L-29.70575802221735,7.23745777955075z" style="fill:rgb(82,237,172)"/><path d="M-10.02664404308364,100.94267308508351L-51.068482060578546,5.310207829942157L-15.33913040762868,98.38202685146135z" style="fill:rgb(26,66,175)"/><path d="M-19.644254986515676,95.31655540114795L-56.20015200501534,3.5506712787485206L-60.27454483522569,1.2859432299021682z" style="fill:rgb(20,68,163)"/><path d="M126.84502831453031,-56.95085118044924L134.12629920199447,-90.18834392271954L130.32004289284836,-92.4162450204943z" style="fill:rgb(82,237,172)"/><path d="M172.9020808526417,21.123335772361006L139.6423465471049,-80.66761448715744L139.34794708701702,-76.61516325175504z" style="fill:rgb(245,161,162)"/><path d="M171.8442619061202,26.294916253750447L137.92913348376874,-72.17326135131576L169.68114320906727,31.771514580861297z" style="fill:rgb(239,149,184)"/><path d="M25.40786652390599,-78.49926515433916L-29.70575802221735,7.23745777955075L-20.802171825247086,6.687757323667649zM126.84502831453031,-56.95085118044924L136.986182140658,-87.47741964148096L134.12629920199447,-90.18834392271954z" style="fill:rgb(82,237,172)"/><path d="M-3.7407576355535284,102.95483349553643L-44.90914538466342,6.529777148600265L-10.02664404308364,100.94267308508351z" style="fill:rgb(32,65,185)"/><path d="M-15.33913040762868,98.38202685146135L-51.068482060578546,5.310207829942157L-56.20015200501534,3.5506712787485206z" style="fill:rgb(26,66,175)"/><path d="M25.40786652390599,-78.49926515433916L-20.802171825247086,6.687757323667649L-11.15162730648697,5.524260918071536z" style="fill:rgb(82,237,172)"/><path d="M171.8442619061202,26.294916253750447L139.34794708701702,-76.61516325175504L137.92913348376874,-72.17326135131576z" style="fill:rgb(242,155,174)"/><path d="M126.84502831453031,-56.95085118044924L25.40786652390599,-78.49926515433916L63.96869755948536,-17.179362341038814zM126.84502831453031,-56.95085118044924L138.8416898226128,-84.29724155104064L136.986182140658,-87.47741964148096z" style="fill:rgb(82,237,172)"/><path d="M169.68114320906727,31.771514580861297L135.3702953231226,-67.38232321403969L166.4087142096988,37.49638194159496z" style="fill:rgb(234,143,195)"/><path d="M25.40786652390599,-78.49926515433916L-11.15162730648697,5.524260918071536L-0.8645418249891145,3.750117051859102z" style="fill:rgb(82,237,172)"/><path d="M3.4694744888177595,104.37991415402942L-37.767690490575795,7.1797808902289715L-3.7407576355535284,102.95483349553643z" style="fill:rgb(40,64,196)"/><path d="M25.40786652390599,-78.49926515433916L-0.8645418249891145,3.750117051859102L9.934670665810726,1.37797220023021z" style="fill:rgb(82,237,172)"/><path d="M-10.02664404308364,100.94267308508351L-44.90914538466342,6.529777148600265L-51.068482060578546,5.310207829942157z" style="fill:rgb(32,65,185)"/><path d="M126.84502831453031,-56.95085118044924L139.6423465471049,-80.66761448715744L138.8416898226128,-84.29724155104064z" style="fill:rgb(82,237,172)"/><path d="M169.68114320906727,31.771514580861297L137.92913348376874,-72.17326135131576L135.3702953231226,-67.38232321403969z" style="fill:rgb(239,149,184)"/><path d="M25.40786652390599,-78.49926515433916L9.934670665810726,1.37797220023021L21.109496640482362,-1.5691210963848183z" style="fill:rgb(82,237,172)"/><path d="M166.4087142096988,37.49638194159496L131.67049338024262,-62.29007322484835L162.03921490235132,43.40613197911099z" style="fill:rgb(228,137,204)"/><path d="M25.40786652390599,-78.49926515433916L21.109496640482362,-1.5691210963848183L32.51417787364093,-5.057885399011919zM25.40786652390599,-78.49926515433916L32.51417787364093,-5.057885399011919L43.99641735124015,-9.045525384811386z" style="fill:rgb(82,237,172)"/><path d="M11.539343979750086,105.1861440486438L-29.70575802221735,7.23745777955075L3.4694744888177595,104.37991415402942z" style="fill:rgb(49,63,205)"/><path d="M25.40786652390599,-78.49926515433916L43.99641735124015,-9.045525384811386L55.40057446863795,-13.480470143719323zM25.40786652390599,-78.49926515433916L55.40057446863795,-13.480470143719323L63.96869755948536,-17.179362341038814zM126.84502831453031,-56.95085118044924L139.34794708701702,-76.61516325175504L139.6423465471049,-80.66761448715744z" style="fill:rgb(82,237,172)"/><path d="M-3.7407576355535284,102.95483349553643L-37.767690490575795,7.1797808902289715L-44.90914538466342,6.529777148600265z" style="fill:rgb(40,64,196)"/><path d="M166.4087142096988,37.49638194159496L135.3702953231226,-67.38232321403969L131.67049338024262,-62.29007322484835z" style="fill:rgb(234,143,195)"/><path d="M162.03921490235132,43.40613197911099L126.84502831453031,-56.95085118044924L156.6008148637484,49.432011974003686z" style="fill:rgb(221,130,213)"/><path d="M20.38881808301971,105.3491033357118L-20.802171825247086,6.687757323667649L11.539343979750086,105.1861440486438z" style="fill:rgb(58,64,214)"/><path d="M126.84502831453031,-56.95085118044924L137.92913348376874,-72.17326135131576L139.34794708701702,-76.61516325175504z" style="fill:rgb(82,237,172)"/><path d="M3.4694744888177595,104.37991415402942L-29.70575802221735,7.23745777955075L-37.767690490575795,7.1797808902289715z" style="fill:rgb(49,63,205)"/><path d="M156.6008148637484,49.432011974003686L120.92685522831115,-51.42521589455849L150.13947713277625,55.50014825371809z" style="fill:rgb(213,124,221)"/><path d="M162.03921490235132,43.40613197911099L131.67049338024262,-62.29007322484835L126.84502831453031,-56.95085118044924z" style="fill:rgb(228,137,204)"/><path d="M126.84502831453031,-56.95085118044924L135.3702953231226,-67.38232321403969L137.92913348376874,-72.17326135131576z" style="fill:rgb(82,237,172)"/><path d="M29.922352742931384,104.85283826488387L-11.15162730648697,5.524260918071536L20.38881808301971,105.3491033357118z" style="fill:rgb(69,65,222)"/><path d="M150.13947713277625,55.50014825371809L113.96678799957324,-45.77923783213733L142.71857960378327,61.53353748701117z" style="fill:rgb(204,117,228)"/><path d="M11.539343979750086,105.1861440486438L-20.802171825247086,6.687757323667649L-29.70575802221735,7.23745777955075z" style="fill:rgb(58,64,214)"/><path d="M126.84502831453031,-56.95085118044924L131.67049338024262,-62.29007322484835L135.3702953231226,-67.38232321403969z" style="fill:rgb(82,237,172)"/><path d="M156.6008148637484,49.432011974003686L126.84502831453031,-56.95085118044924L120.92685522831115,-51.42521589455849z" style="fill:rgb(221,130,213)"/><path d="M40.03041002038181,103.69141459760134L-0.8645418249891145,3.750117051859102L29.922352742931384,104.85283826488387z" style="fill:rgb(79,66,228)"/><path d="M142.71857960378327,61.53353748701117L106.03423534869007,-40.08385768571558L134.41873823710824,67.45309731661163z" style="fill:rgb(195,111,234)"/><path d="M50.59052020032823,101.86904144771927L9.934670665810726,1.37797220023021L40.03041002038181,103.69141459760134z" style="fill:rgb(91,68,234)"/><path d="M20.38881808301971,105.3491033357118L-11.15162730648697,5.524260918071536L-20.802171825247086,6.687757323667649z" style="fill:rgb(69,65,222)"/><path d="M150.13947713277625,55.50014825371809L120.92685522831115,-51.42521589455849L113.96678799957324,-45.77923783213733z" style="fill:rgb(213,124,221)"/><path d="M134.41873823710824,67.45309731661163L97.21654808305765,-34.412857228460474L125.33716955436977,73.17924687229107z" style="fill:rgb(184,105,239)"/><path d="M61.46984927479543,99.40070401264727L21.109496640482362,-1.5691210963848183L50.59052020032823,101.86904144771927z" style="fill:rgb(102,71,239)"/><path d="M125.33716955436977,73.17924687229107L87.61817801523974,-28.842089378657334L115.58589476002754,78.63354457128067z" style="fill:rgb(174,99,242)"/><path d="M73.30450494936618,7.349494434984562L94.58518260160353,88.43105951193189L102.79552295113064,84.83382193426354z" style="fill:rgb(151,88,246)"/><path d="M29.922352742931384,104.85283826488387L-0.8645418249891145,3.750117051859102L-11.15162730648697,5.524260918071536z" style="fill:rgb(79,66,228)"/><path d="M72.5268704090678,96.31219619071304L32.51417787364093,-5.057885399011919L61.46984927479543,99.40070401264727z" style="fill:rgb(114,75,243)"/><path d="M142.71857960378327,61.53353748701117L113.96678799957324,-45.77923783213733L106.03423534869007,-40.08385768571558z" style="fill:rgb(204,117,228)"/><path d="M115.58589476002754,78.63354457128067L77.35880311173173,-23.447310445980534L105.29002811009288,83.74089059649499z" style="fill:rgb(162,93,245)"/><path d="M83.61491809448219,92.64006517465678L43.99641735124015,-9.045525384811386L72.5268704090678,96.31219619071304z" style="fill:rgb(126,79,245)"/><path d="M66.57174244338415,-18.30314391877671L102.79552295113064,84.83382193426354L105.29002811009288,83.74089059649499z" style="fill:rgb(151,88,246)"/><path d="M94.58518260160353,88.43105951193189L55.40057446863795,-13.480470143719323L83.61491809448219,92.64006517465678z" style="fill:rgb(139,83,246)"/><path d="M126.84502831453031,-56.95085118044924L113.96678799957324,-45.77923783213733L120.92685522831115,-51.42521589455849z" style="fill:rgb(82,237,172)"/><path d="M40.03041002038181,103.69141459760134L9.934670665810726,1.37797220023021L-0.8645418249891145,3.750117051859102z" style="fill:rgb(91,68,234)"/><path d="M134.41873823710824,67.45309731661163L106.03423534869007,-40.08385768571558L97.21654808305765,-34.412857228460474z" style="fill:rgb(195,111,234)"/><path d="M126.84502831453031,-56.95085118044924L106.03423534869007,-40.08385768571558L113.96678799957324,-45.77923783213733z" style="fill:rgb(82,237,172)"/><path d="M50.59052020032823,101.86904144771927L21.109496640482362,-1.5691210963848183L9.934670665810726,1.37797220023021z" style="fill:rgb(102,71,239)"/><path d="M125.33716955436977,73.17924687229107L97.21654808305765,-34.412857228460474L87.61817801523974,-28.842089378657334z" style="fill:rgb(184,105,239)"/><path d="M126.84502831453031,-56.95085118044924L97.21654808305765,-34.412857228460474L106.03423534869007,-40.08385768571558z" style="fill:rgb(82,237,172)"/><path d="M61.46984927479543,99.40070401264727L32.51417787364093,-5.057885399011919L21.109496640482362,-1.5691210963848183z" style="fill:rgb(114,75,243)"/><path d="M66.57174244338415,-18.30314391877671L73.30450494936618,7.349494434984562L102.79552295113064,84.83382193426354zM73.30450494936618,7.349494434984562L55.40057446863795,-13.480470143719323L94.58518260160353,88.43105951193189z" style="fill:rgb(151,88,246)"/><path d="M115.58589476002754,78.63354457128067L87.61817801523974,-28.842089378657334L77.35880311173173,-23.447310445980534z" style="fill:rgb(174,99,242)"/><path d="M126.84502831453031,-56.95085118044924L87.61817801523974,-28.842089378657334L97.21654808305765,-34.412857228460474z" style="fill:rgb(82,237,172)"/><path d="M72.5268704090678,96.31219619071304L43.99641735124015,-9.045525384811386L32.51417787364093,-5.057885399011919z" style="fill:rgb(126,79,245)"/><path d="M105.29002811009288,83.74089059649499L77.35880311173173,-23.447310445980534L66.57174244338415,-18.30314391877671z" style="fill:rgb(162,93,245)"/><path d="M83.61491809448219,92.64006517465678L55.40057446863795,-13.480470143719323L43.99641735124015,-9.045525384811386z" style="fill:rgb(139,83,246)"/><path d="M126.84502831453031,-56.95085118044924L77.35880311173173,-23.447310445980534L87.61817801523974,-28.842089378657334zM126.84502831453031,-56.95085118044924L66.57174244338415,-18.30314391877671L77.35880311173173,-23.447310445980534zM126.84502831453031,-56.95085118044924L63.96869755948536,-17.179362341038814L66.57174244338415,-18.30314391877671z" style="fill:rgb(82,237,172)"/><path d="M73.30450494936618,7.349494434984562L66.57174244338415,-18.30314391877671L63.96869755948536,-17.179362341038814zM73.30450494936618,7.349494434984562L63.96869755948536,-17.179362341038814L55.40057446863795,-13.480470143719323z" style="fill:rgb(151,88,246)"/></svg>