solid JSxCAD
facet normal 0 0 1
outer loop
vertex -22.20316 -5.53105 10
vertex -22.12556 -5.65556 10
vertex -21.51171 -6.44859 10
endloop
endfacet
facet normal 0 0 1
outer loop
vertex -22.20316 -5.53105 10
vertex -21.51171 -6.44859 10
vertex -20.82077 -7.17545 10
endloop
endfacet
facet normal 0 0 1
outer loop
vertex -22.20316 -5.53105 10
vertex -20.82077 -7.17545 10
vertex -20.05985 -7.82868 10
endloop
endfacet
facet normal 0 0 1
outer loop
vertex -22.20316 -5.53105 10
vertex -20.05985 -7.82868 10
vertex -19.23674 -8.40158 10
endloop
endfacet
facet normal 0 0 1
outer loop
vertex -22.20316 -5.53105 10
vertex -19.23674 -8.40158 10
vertex -18.3599 -8.88826 10
endloop
endfacet
facet normal 0 0 1
outer loop
vertex -22.20316 -5.53105 10
vertex -18.3599 -8.88826 10
vertex -17.43832 -9.28375 10
endloop
endfacet
facet normal 0 0 1
outer loop
vertex -22.20316 -5.53105 10
vertex -17.43832 -9.28375 10
vertex -16.48146 -9.58396 10
endloop
endfacet
facet normal 0 0 1
outer loop
vertex -22.20316 -5.53105 10
vertex -16.48146 -9.58396 10
vertex -15.49913 -9.78584 10
endloop
endfacet
facet normal 0 0 1
outer loop
vertex -22.20316 -5.53105 10
vertex -15.49913 -9.78584 10
vertex -14.50143 -9.88729 10
endloop
endfacet
facet normal 0 0 1
outer loop
vertex -22.20316 -5.53105 10
vertex -14.50143 -9.88729 10
vertex -13.49857 -9.88729 10
endloop
endfacet
facet normal 0 0 1
outer loop
vertex -22.20316 -5.53105 10
vertex -13.49857 -9.88729 10
vertex -12.50087 -9.78584 10
endloop
endfacet
facet normal 0 0 1
outer loop
vertex -22.20316 -5.53105 10
vertex -12.50087 -9.78584 10
vertex -11.51854 -9.58396 10
endloop
endfacet
facet normal 0 0 1
outer loop
vertex -22.20316 -5.53105 10
vertex -11.51854 -9.58396 10
vertex -10.56168 -9.28375 10
endloop
endfacet
facet normal 0 0 1
outer loop
vertex -22.20316 -5.53105 10
vertex -10.56168 -9.28375 10
vertex -9.6401 -8.88826 10
endloop
endfacet
facet normal 0 0 1
outer loop
vertex -22.20316 -5.53105 10
vertex -9.6401 -8.88826 10
vertex -8.76326 -8.40158 10
endloop
endfacet
facet normal 0 0 1
outer loop
vertex -22.20316 -5.53105 10
vertex -8.76326 -8.40158 10
vertex -8.64284 -8.31777 10
endloop
endfacet
facet normal 0 0 1
outer loop
vertex -23.69735 -1.99286 10
vertex -23.44598 -2.96369 10
vertex -23.09768 -3.90412 10
endloop
endfacet
facet normal 0 0 1
outer loop
vertex -23.69735 -1.99286 10
vertex -23.09768 -3.90412 10
vertex -22.65603 -4.80449 10
endloop
endfacet
facet normal 0 0 1
outer loop
vertex -23.69735 -1.99286 10
vertex -22.65603 -4.80449 10
vertex -22.20316 -5.53105 10
endloop
endfacet
facet normal 0 0 1
outer loop
vertex -23.69735 -1.99286 10
vertex -22.20316 -5.53105 10
vertex -10.30451 -7.97629 10
endloop
endfacet
facet normal 0 0 1
outer loop
vertex -23.69735 -1.99286 10
vertex -10.30451 -7.97629 10
vertex -9.45446 8.78523 10
endloop
endfacet
facet normal 0 0 1
outer loop
vertex -23.69735 -1.99286 10
vertex -9.45446 8.78523 10
vertex -9.6401 8.88826 10
endloop
endfacet
facet normal 0 0 1
outer loop
vertex -23.69735 -1.99286 10
vertex -9.6401 8.88826 10
vertex -10.56168 9.28375 10
endloop
endfacet
facet normal 0 0 1
outer loop
vertex -23.69735 -1.99286 10
vertex -10.56168 9.28375 10
vertex -11.51854 9.58396 10
endloop
endfacet
facet normal 0 0 1
outer loop
vertex -23.69735 -1.99286 10
vertex -11.51854 9.58396 10
vertex -12.50087 9.78584 10
endloop
endfacet
facet normal 0 0 1
outer loop
vertex -23.69735 -1.99286 10
vertex -12.50087 9.78584 10
vertex -13.49857 9.88729 10
endloop
endfacet
facet normal 0 0 1
outer loop
vertex -23.69735 -1.99286 10
vertex -13.49857 9.88729 10
vertex -14.50143 9.88729 10
endloop
endfacet
facet normal 0 0 1
outer loop
vertex -23.69735 -1.99286 10
vertex -14.50143 9.88729 10
vertex -15.49913 9.78584 10
endloop
endfacet
facet normal 0 0 1
outer loop
vertex -23.69735 -1.99286 10
vertex -15.49913 9.78584 10
vertex -16.48146 9.58396 10
endloop
endfacet
facet normal 0 0 1
outer loop
vertex -23.69735 -1.99286 10
vertex -16.48146 9.58396 10
vertex -17.43832 9.28375 10
endloop
endfacet
facet normal 0 0 1
outer loop
vertex -23.69735 -1.99286 10
vertex -17.43832 9.28375 10
vertex -18.3599 8.88826 10
endloop
endfacet
facet normal 0 0 1
outer loop
vertex -23.69735 -1.99286 10
vertex -18.3599 8.88826 10
vertex -19.23674 8.40158 10
endloop
endfacet
facet normal 0 0 1
outer loop
vertex -23.69735 -1.99286 10
vertex -19.23674 8.40158 10
vertex -20.05985 7.82868 10
endloop
endfacet
facet normal 0 0 1
outer loop
vertex -23.69735 -1.99286 10
vertex -20.05985 7.82868 10
vertex -20.82077 7.17545 10
endloop
endfacet
facet normal 0 0 1
outer loop
vertex -23.69735 -1.99286 10
vertex -20.82077 7.17545 10
vertex -21.51171 6.44859 10
endloop
endfacet
facet normal 0 0 1
outer loop
vertex -23.69735 -1.99286 10
vertex -21.51171 6.44859 10
vertex -22.12556 5.65556 10
endloop
endfacet
facet normal 0 0 1
outer loop
vertex -23.69735 -1.99286 10
vertex -22.12556 5.65556 10
vertex -22.65603 4.80449 10
endloop
endfacet
facet normal 0 0 1
outer loop
vertex -23.69735 -1.99286 10
vertex -22.65603 4.80449 10
vertex -23.09768 3.90412 10
endloop
endfacet
facet normal 0 0 1
outer loop
vertex -23.69735 -1.99286 10
vertex -23.09768 3.90412 10
vertex -23.44598 2.96369 10
endloop
endfacet
facet normal 0 0 1
outer loop
vertex -23.69735 -1.99286 10
vertex -23.44598 2.96369 10
vertex -23.69735 1.99286 10
endloop
endfacet
facet normal 0 0 1
outer loop
vertex -23.69735 -1.99286 10
vertex -23.69735 1.99286 10
vertex -23.84921 1.00157 10
endloop
endfacet
facet normal 0 0 1
outer loop
vertex -23.69735 -1.99286 10
vertex -23.84921 1.00157 10
vertex -23.9 0 10
endloop
endfacet
facet normal 0 0 1
outer loop
vertex -23.69735 -1.99286 10
vertex -23.9 0 10
vertex -23.84921 -1.00157 10
endloop
endfacet
facet normal 0 0 1
outer loop
vertex -7 6.9869 10
vertex -7.17923 7.17545 10
vertex -7.94015 7.82868 10
endloop
endfacet
facet normal 0 0 1
outer loop
vertex -7 6.9869 10
vertex -7.94015 7.82868 10
vertex -8.76326 8.40158 10
endloop
endfacet
facet normal 0 0 1
outer loop
vertex -7 6.9869 10
vertex -8.76326 8.40158 10
vertex -9.45446 8.78523 10
endloop
endfacet
facet normal 0 0 1
outer loop
vertex -7 6.9869 10
vertex -9.45446 8.78523 10
vertex -9.68913 4.15793 10
endloop
endfacet
facet normal 0 0 1
outer loop
vertex -8.14875 -7.97387 10
vertex -9.95132 -1.01195 10
vertex -10.30451 -7.97629 10
endloop
endfacet
facet normal 0 0 1
outer loop
vertex -8.14875 -7.97387 10
vertex -10.30451 -7.97629 10
vertex -8.64284 -8.31777 10
endloop
endfacet
facet normal 0 0 1
outer loop
vertex -7.94015 -7.82868 10
vertex -7.17923 -7.17545 10
vertex -7.01816 -7.006 10
endloop
endfacet
facet normal 0 0 1
outer loop
vertex -7.94015 -7.82868 10
vertex -7.01816 -7.006 10
vertex -8.7941 -5.4814 10
endloop
endfacet
facet normal 0 0 1
outer loop
vertex -7.94015 -7.82868 10
vertex -8.7941 -5.4814 10
vertex -8.14875 -7.97387 10
endloop
endfacet
facet normal 0 0 1
outer loop
vertex -9.06236 -4.4453 10
vertex -8.7941 -5.4814 10
vertex -7.2032 -6.84715 10
endloop
endfacet
facet normal 0 0 1
outer loop
vertex -7.51171 -6.44859 10
vertex -7.2032 -6.84715 10
vertex -7.01816 -7.006 10
endloop
endfacet
facet normal 0 0 1
outer loop
vertex -7.51171 -6.44859 10
vertex -7.01816 -7.006 10
vertex -7 -6.9869 10
endloop
endfacet
facet normal 0 0 1
outer loop
vertex -9.9 0 10
vertex -9.95132 -1.01195 10
vertex -9.82368 -1.50493 10
endloop
endfacet
facet normal 0 0 1
outer loop
vertex -8.92999 4.95655 10
vertex -9.68913 4.15793 10
vertex -9.82368 1.50493 10
endloop
endfacet
facet normal 0 0 1
outer loop
vertex -7.85895 6.08328 10
vertex -8.92999 4.95655 10
vertex -9.192 3.9446 10
endloop
endfacet
facet normal 0 0 1
outer loop
vertex -8.65603 4.80449 10
vertex -9.192 3.9446 10
vertex -9.31965 3.45162 10
endloop
endfacet
facet normal 0 0 1
outer loop
vertex -9.31965 -3.45162 10
vertex -9.06236 -4.4453 10
vertex -8.43407 -5.25699 10
endloop
endfacet
facet normal 0 0 1
outer loop
vertex -7.51171 6.44859 10
vertex -7.85895 6.08328 10
vertex -8.12556 5.65556 10
endloop
endfacet
facet normal 0 0 1
outer loop
vertex -8.65603 -4.80449 10
vertex -8.43407 -5.25699 10
vertex -8.12556 -5.65556 10
endloop
endfacet
facet normal 0 0 1
outer loop
vertex -9.44598 -2.96369 10
vertex -9.31965 -3.45162 10
vertex -9.09768 -3.90412 10
endloop
endfacet
facet normal 0 0 1
outer loop
vertex -9.69735 1.99286 10
vertex -9.82368 1.50493 10
vertex -9.84921 1.00157 10
endloop
endfacet
facet normal 0 0 1
outer loop
vertex -9.09768 3.90412 10
vertex -9.31965 3.45162 10
vertex -9.44598 2.96369 10
endloop
endfacet
facet normal 0 0 1
outer loop
vertex -9.84921 -1.00157 10
vertex -9.82368 -1.50493 10
vertex -9.69735 -1.99286 10
endloop
endfacet
facet normal 0 0 -1
outer loop
vertex -8.64284 -8.31777 0
vertex -8.76326 -8.40158 0
vertex -9.6401 -8.88826 0
endloop
endfacet
facet normal 0 0 -1
outer loop
vertex -8.64284 -8.31777 0
vertex -9.6401 -8.88826 0
vertex -10.56168 -9.28375 0
endloop
endfacet
facet normal 0 0 -1
outer loop
vertex -8.64284 -8.31777 0
vertex -10.56168 -9.28375 0
vertex -11.51854 -9.58396 0
endloop
endfacet
facet normal 0 0 -1
outer loop
vertex -8.64284 -8.31777 0
vertex -11.51854 -9.58396 0
vertex -12.50087 -9.78584 0
endloop
endfacet
facet normal 0 0 -1
outer loop
vertex -8.64284 -8.31777 0
vertex -12.50087 -9.78584 0
vertex -13.49857 -9.88729 0
endloop
endfacet
facet normal 0 0 -1
outer loop
vertex -8.64284 -8.31777 0
vertex -13.49857 -9.88729 0
vertex -14.50143 -9.88729 0
endloop
endfacet
facet normal 0 0 -1
outer loop
vertex -8.64284 -8.31777 0
vertex -14.50143 -9.88729 0
vertex -15.49913 -9.78584 0
endloop
endfacet
facet normal 0 0 -1
outer loop
vertex -8.64284 -8.31777 0
vertex -15.49913 -9.78584 0
vertex -16.48146 -9.58396 0
endloop
endfacet
facet normal 0 0 -1
outer loop
vertex -8.64284 -8.31777 0
vertex -16.48146 -9.58396 0
vertex -17.43832 -9.28375 0
endloop
endfacet
facet normal 0 0 -1
outer loop
vertex -8.64284 -8.31777 0
vertex -17.43832 -9.28375 0
vertex -18.3599 -8.88826 0
endloop
endfacet
facet normal 0 0 -1
outer loop
vertex -8.64284 -8.31777 0
vertex -18.3599 -8.88826 0
vertex -19.23674 -8.40158 0
endloop
endfacet
facet normal 0 0 -1
outer loop
vertex -8.64284 -8.31777 0
vertex -19.23674 -8.40158 0
vertex -20.05985 -7.82868 0
endloop
endfacet
facet normal 0 0 -1
outer loop
vertex -8.64284 -8.31777 0
vertex -20.05985 -7.82868 0
vertex -20.82077 -7.17545 0
endloop
endfacet
facet normal 0 0 -1
outer loop
vertex -8.64284 -8.31777 0
vertex -20.82077 -7.17545 0
vertex -21.51171 -6.44859 0
endloop
endfacet
facet normal 0 0 -1
outer loop
vertex -8.64284 -8.31777 0
vertex -21.51171 -6.44859 0
vertex -22.12556 -5.65556 0
endloop
endfacet
facet normal 0 0 -1
outer loop
vertex -8.64284 -8.31777 0
vertex -22.12556 -5.65556 0
vertex -22.20316 -5.53105 0
endloop
endfacet
facet normal 0 0 -1
outer loop
vertex -23.44598 2.96369 0
vertex -23.09768 3.90412 0
vertex -22.65603 4.80449 0
endloop
endfacet
facet normal 0 0 -1
outer loop
vertex -23.44598 2.96369 0
vertex -22.65603 4.80449 0
vertex -22.12556 5.65556 0
endloop
endfacet
facet normal 0 0 -1
outer loop
vertex -23.44598 2.96369 0
vertex -22.12556 5.65556 0
vertex -21.51171 6.44859 0
endloop
endfacet
facet normal 0 0 -1
outer loop
vertex -23.44598 2.96369 0
vertex -21.51171 6.44859 0
vertex -20.82077 7.17545 0
endloop
endfacet
facet normal 0 0 -1
outer loop
vertex -23.44598 2.96369 0
vertex -20.82077 7.17545 0
vertex -20.05985 7.82868 0
endloop
endfacet
facet normal 0 0 -1
outer loop
vertex -23.44598 2.96369 0
vertex -20.05985 7.82868 0
vertex -19.23674 8.40158 0
endloop
endfacet
facet normal 0 0 -1
outer loop
vertex -23.44598 2.96369 0
vertex -19.23674 8.40158 0
vertex -18.3599 8.88826 0
endloop
endfacet
facet normal 0 0 -1
outer loop
vertex -23.44598 2.96369 0
vertex -18.3599 8.88826 0
vertex -17.43832 9.28375 0
endloop
endfacet
facet normal 0 0 -1
outer loop
vertex -23.44598 2.96369 0
vertex -17.43832 9.28375 0
vertex -16.48146 9.58396 0
endloop
endfacet
facet normal 0 0 -1
outer loop
vertex -23.44598 2.96369 0
vertex -16.48146 9.58396 0
vertex -15.49913 9.78584 0
endloop
endfacet
facet normal 0 0 -1
outer loop
vertex -23.44598 2.96369 0
vertex -15.49913 9.78584 0
vertex -14.50143 9.88729 0
endloop
endfacet
facet normal 0 0 -1
outer loop
vertex -23.44598 2.96369 0
vertex -14.50143 9.88729 0
vertex -13.49857 9.88729 0
endloop
endfacet
facet normal 0 0 -1
outer loop
vertex -23.44598 2.96369 0
vertex -13.49857 9.88729 0
vertex -12.50087 9.78584 0
endloop
endfacet
facet normal 0 0 -1
outer loop
vertex -23.44598 2.96369 0
vertex -12.50087 9.78584 0
vertex -11.51854 9.58396 0
endloop
endfacet
facet normal 0 0 -1
outer loop
vertex -23.44598 2.96369 0
vertex -11.51854 9.58396 0
vertex -10.56168 9.28375 0
endloop
endfacet
facet normal 0 0 -1
outer loop
vertex -23.44598 2.96369 0
vertex -10.56168 9.28375 0
vertex -9.6401 8.88826 0
endloop
endfacet
facet normal 0 0 -1
outer loop
vertex -23.44598 2.96369 0
vertex -9.6401 8.88826 0
vertex -9.45446 8.78523 0
endloop
endfacet
facet normal 0 0 -1
outer loop
vertex -23.44598 2.96369 0
vertex -9.45446 8.78523 0
vertex -10.30451 -7.97629 0
endloop
endfacet
facet normal 0 0 -1
outer loop
vertex -23.44598 2.96369 0
vertex -10.30451 -7.97629 0
vertex -22.20316 -5.53105 0
endloop
endfacet
facet normal 0 0 -1
outer loop
vertex -23.44598 2.96369 0
vertex -22.20316 -5.53105 0
vertex -22.65603 -4.80449 0
endloop
endfacet
facet normal 0 0 -1
outer loop
vertex -23.44598 2.96369 0
vertex -22.65603 -4.80449 0
vertex -23.09768 -3.90412 0
endloop
endfacet
facet normal 0 0 -1
outer loop
vertex -23.44598 2.96369 0
vertex -23.09768 -3.90412 0
vertex -23.44598 -2.96369 0
endloop
endfacet
facet normal 0 0 -1
outer loop
vertex -23.44598 2.96369 0
vertex -23.44598 -2.96369 0
vertex -23.69735 -1.99286 0
endloop
endfacet
facet normal 0 0 -1
outer loop
vertex -23.44598 2.96369 0
vertex -23.69735 -1.99286 0
vertex -23.84921 -1.00157 0
endloop
endfacet
facet normal 0 0 -1
outer loop
vertex -23.44598 2.96369 0
vertex -23.84921 -1.00157 0
vertex -23.9 0 0
endloop
endfacet
facet normal 0 0 -1
outer loop
vertex -23.44598 2.96369 0
vertex -23.9 0 0
vertex -23.84921 1.00157 0
endloop
endfacet
facet normal 0 0 -1
outer loop
vertex -23.44598 2.96369 0
vertex -23.84921 1.00157 0
vertex -23.69735 1.99286 0
endloop
endfacet
facet normal 0 0 -1
outer loop
vertex -8.76326 8.40158 0
vertex -7.94015 7.82868 0
vertex -7.17923 7.17545 0
endloop
endfacet
facet normal 0 0 -1
outer loop
vertex -8.76326 8.40158 0
vertex -7.17923 7.17545 0
vertex -7 6.9869 0
endloop
endfacet
facet normal 0 0 -1
outer loop
vertex -8.76326 8.40158 0
vertex -7 6.9869 0
vertex -9.68913 4.15793 0
endloop
endfacet
facet normal 0 0 -1
outer loop
vertex -8.76326 8.40158 0
vertex -9.68913 4.15793 0
vertex -9.45446 8.78523 0
endloop
endfacet
facet normal 0 0 -1
outer loop
vertex -8.14875 -7.97387 0
vertex -8.64284 -8.31777 0
vertex -10.30451 -7.97629 0
endloop
endfacet
facet normal 0 0 -1
outer loop
vertex -8.14875 -7.97387 0
vertex -10.30451 -7.97629 0
vertex -9.95132 -1.01195 0
endloop
endfacet
facet normal 0 0 -1
outer loop
vertex -7.01816 -7.006 0
vertex -7.17923 -7.17545 0
vertex -7.94015 -7.82868 0
endloop
endfacet
facet normal 0 0 -1
outer loop
vertex -7.01816 -7.006 0
vertex -7.94015 -7.82868 0
vertex -8.14875 -7.97387 0
endloop
endfacet
facet normal 0 0 -1
outer loop
vertex -7.01816 -7.006 0
vertex -8.14875 -7.97387 0
vertex -8.7941 -5.4814 0
endloop
endfacet
facet normal 0 0 -1
outer loop
vertex -7.2032 -6.84715 0
vertex -8.7941 -5.4814 0
vertex -9.06236 -4.4453 0
endloop
endfacet
facet normal 0 0 -1
outer loop
vertex -7 -6.9869 0
vertex -7.01816 -7.006 0
vertex -7.2032 -6.84715 0
endloop
endfacet
facet normal 0 0 -1
outer loop
vertex -7 -6.9869 0
vertex -7.2032 -6.84715 0
vertex -7.51171 -6.44859 0
endloop
endfacet
facet normal 0 0 -1
outer loop
vertex -9.82368 -1.50493 0
vertex -9.95132 -1.01195 0
vertex -9.9 0 0
endloop
endfacet
facet normal 0 0 -1
outer loop
vertex -9.82368 1.50493 0
vertex -9.68913 4.15793 0
vertex -8.92999 4.95655 0
endloop
endfacet
facet normal 0 0 -1
outer loop
vertex -9.192 3.9446 0
vertex -8.92999 4.95655 0
vertex -7.85895 6.08328 0
endloop
endfacet
facet normal 0 0 -1
outer loop
vertex -9.31965 3.45162 0
vertex -9.192 3.9446 0
vertex -8.65603 4.80449 0
endloop
endfacet
facet normal 0 0 -1
outer loop
vertex -8.43407 -5.25699 0
vertex -9.06236 -4.4453 0
vertex -9.31965 -3.45162 0
endloop
endfacet
facet normal 0 0 -1
outer loop
vertex -8.12556 5.65556 0
vertex -7.85895 6.08328 0
vertex -7.51171 6.44859 0
endloop
endfacet
facet normal 0 0 -1
outer loop
vertex -8.12556 -5.65556 0
vertex -8.43407 -5.25699 0
vertex -8.65603 -4.80449 0
endloop
endfacet
facet normal 0 0 -1
outer loop
vertex -9.09768 -3.90412 0
vertex -9.31965 -3.45162 0
vertex -9.44598 -2.96369 0
endloop
endfacet
facet normal 0 0 -1
outer loop
vertex -9.84921 1.00157 0
vertex -9.82368 1.50493 0
vertex -9.69735 1.99286 0
endloop
endfacet
facet normal 0 0 -1
outer loop
vertex -9.44598 2.96369 0
vertex -9.31965 3.45162 0
vertex -9.09768 3.90412 0
endloop
endfacet
facet normal 0 0 -1
outer loop
vertex -9.69735 -1.99286 0
vertex -9.82368 -1.50493 0
vertex -9.84921 -1.00157 0
endloop
endfacet
facet normal 0 1 0
outer loop
vertex -14.50143 9.88729 0
vertex -14.50143 9.88729 10
vertex -13.49857 9.88729 0
endloop
endfacet
facet normal 0 1 0
outer loop
vertex -13.49857 9.88729 0
vertex -14.50143 9.88729 10
vertex -13.49857 9.88729 10
endloop
endfacet
facet normal -0.29935698465285665 0.9541411822888421 0
outer loop
vertex -17.43832 9.28375 0
vertex -17.43832 9.28375 10
vertex -16.48146 9.58396 0
endloop
endfacet
facet normal -0.29935698465285665 0.9541411822888421 0
outer loop
vertex -16.48146 9.58396 0
vertex -17.43832 9.28375 10
vertex -16.48146 9.58396 10
endloop
endfacet
facet normal -0.7247887795062078 0.688971135173239 0
outer loop
vertex -21.51171 6.44859 0
vertex -21.51171 6.44859 10
vertex -20.82077 7.17545 0
endloop
endfacet
facet normal -0.7247887795062078 0.688971135173239 0
outer loop
vertex -20.82077 7.17545 0
vertex -21.51171 6.44859 10
vertex -20.82077 7.17545 10
endloop
endfacet
facet normal 0.7248018349567649 -0.6889574007464516 0
outer loop
vertex -7.01816 -7.006 2.33123
vertex -7.17923 -7.17545 0
vertex -7.01816 -7.006 0
endloop
endfacet
facet normal 0.7248018349567649 -0.6889574007464515 0
outer loop
vertex -7.01816 -7.006 2.33123
vertex -7.01816 -7.006 10
vertex -7.17923 -7.17545 10
endloop
endfacet
facet normal 0.7248018349567648 -0.6889574007464515 0
outer loop
vertex -7.01816 -7.006 2.33123
vertex -7.17923 -7.17545 10
vertex -7.17923 -7.17545 0
endloop
endfacet
facet normal 0.7247151718004569 -0.689048561251117 0
outer loop
vertex -7 -6.9869 2.59399
vertex -7.01816 -7.006 2.33123
vertex -7.01816 -7.006 0
endloop
endfacet
facet normal 0.7247151718004567 -0.6890485612511169 0
outer loop
vertex -7 -6.9869 2.59399
vertex -7.01816 -7.006 0
vertex -7 -6.9869 0
endloop
endfacet
facet normal 0.7247151718004569 -0.6890485612511171 0
outer loop
vertex -7 -6.9869 2.59399
vertex -7 -6.9869 10
vertex -7.01816 -7.006 10
endloop
endfacet
facet normal 0.7247151718004569 -0.689048561251117 0
outer loop
vertex -7 -6.9869 2.59399
vertex -7.01816 -7.006 10
vertex -7.01816 -7.006 2.33123
endloop
endfacet
facet normal -0.897805552811701 0.4403920859194407 0
outer loop
vertex -23.09768 3.90412 0
vertex -23.09768 3.90412 10
vertex -22.65603 4.80449 0
endloop
endfacet
facet normal -0.897805552811701 0.4403920859194407 0
outer loop
vertex -22.65603 4.80449 0
vertex -23.09768 3.90412 10
vertex -22.65603 4.80449 10
endloop
endfacet
facet normal 0.6513734049688649 0.7587573309690437 0
outer loop
vertex -7.94015 7.82868 0
vertex -7.94015 7.82868 10
vertex -7.17923 7.17545 0
endloop
endfacet
facet normal 0.6513734049688649 0.7587573309690437 0
outer loop
vertex -7.17923 7.17545 0
vertex -7.94015 7.82868 10
vertex -7.17923 7.17545 10
endloop
endfacet
facet normal -0.4852974622473648 0.8743491139906687 0
outer loop
vertex -19.23674 8.40158 0
vertex -19.23674 8.40158 10
vertex -18.3599 8.88826 0
endloop
endfacet
facet normal -0.4852974622473648 0.8743491139906687 0
outer loop
vertex -18.3599 8.88826 0
vertex -19.23674 8.40158 10
vertex -18.3599 8.88826 10
endloop
endfacet
facet normal 0.48527097521041573 0.8743638147924079 0
outer loop
vertex -9.6401 8.88826 10
vertex -9.45446 8.78523 7.88292
vertex -9.45446 8.78523 0
endloop
endfacet
facet normal 0.48527097521041573 0.8743638147924078 0
outer loop
vertex -9.6401 8.88826 10
vertex -9.45446 8.78523 0
vertex -9.6401 8.88826 0
endloop
endfacet
facet normal 0.48527097521041573 0.8743638147924078 0
outer loop
vertex -9.45446 8.78523 7.88292
vertex -9.6401 8.88826 10
vertex -9.45446 8.78523 10
endloop
endfacet
facet normal 0.48530457581250824 0.8743451656499517 0
outer loop
vertex -9.45446 8.78523 7.88292
vertex -8.76326 8.40158 0
vertex -9.45446 8.78523 0
endloop
endfacet
facet normal 0.4853045758125083 0.8743451656499517 0
outer loop
vertex -9.45446 8.78523 7.88292
vertex -9.45446 8.78523 10
vertex -8.76326 8.40158 10
endloop
endfacet
facet normal 0.48530457581250824 0.8743451656499517 0
outer loop
vertex -9.45446 8.78523 7.88292
vertex -8.76326 8.40158 10
vertex -8.76326 8.40158 0
endloop
endfacet
facet normal 0.20130431145125036 0.9795287510793841 0
outer loop
vertex -12.50087 9.78584 0
vertex -12.50087 9.78584 10
vertex -11.51854 9.58396 0
endloop
endfacet
facet normal 0.20130431145125036 0.9795287510793841 0
outer loop
vertex -11.51854 9.58396 0
vertex -12.50087 9.78584 10
vertex -11.51854 9.58396 10
endloop
endfacet
facet normal -0.6513734049688658 0.7587573309690431 0
outer loop
vertex -20.82077 7.17545 0
vertex -20.82077 7.17545 10
vertex -20.05985 7.82868 0
endloop
endfacet
facet normal -0.6513734049688658 0.7587573309690431 0
outer loop
vertex -20.05985 7.82868 0
vertex -20.82077 7.17545 10
vertex -20.05985 7.82868 10
endloop
endfacet
facet normal 0 -1 0
outer loop
vertex -13.49857 -9.88729 0
vertex -13.49857 -9.88729 10
vertex -14.50143 -9.88729 0
endloop
endfacet
facet normal 0 -1 0
outer loop
vertex -14.50143 -9.88729 0
vertex -13.49857 -9.88729 10
vertex -14.50143 -9.88729 10
endloop
endfacet
facet normal -0.29935698465285665 -0.9541411822888421 0
outer loop
vertex -16.48146 -9.58396 0
vertex -16.48146 -9.58396 10
vertex -17.43832 -9.28375 0
endloop
endfacet
facet normal -0.29935698465285665 -0.9541411822888421 0
outer loop
vertex -17.43832 -9.28375 0
vertex -16.48146 -9.58396 10
vertex -17.43832 -9.28375 10
endloop
endfacet
facet normal -0.5712672288448418 -0.8207641276566218 0
outer loop
vertex -19.23674 -8.40158 0
vertex -19.23674 -8.40158 10
vertex -20.05985 -7.82868 0
endloop
endfacet
facet normal -0.5712672288448418 -0.8207641276566218 0
outer loop
vertex -20.05985 -7.82868 0
vertex -19.23674 -8.40158 10
vertex -20.05985 -7.82868 10
endloop
endfacet
facet normal 0.10116222884220087 -0.9948699429853523 0
outer loop
vertex -12.50087 -9.78584 0
vertex -12.50087 -9.78584 10
vertex -13.49857 -9.88729 0
endloop
endfacet
facet normal 0.10116222884220087 -0.9948699429853523 0
outer loop
vertex -13.49857 -9.88729 0
vertex -12.50087 -9.78584 10
vertex -13.49857 -9.88729 10
endloop
endfacet
facet normal -0.7247887795062078 -0.688971135173239 0
outer loop
vertex -20.82077 -7.17545 0
vertex -20.82077 -7.17545 10
vertex -21.51171 -6.44859 0
endloop
endfacet
facet normal -0.7247887795062078 -0.688971135173239 0
outer loop
vertex -21.51171 -6.44859 0
vertex -20.82077 -7.17545 10
vertex -21.51171 -6.44859 10
endloop
endfacet
facet normal -0.8486677445275443 -0.5289263270045563 0
outer loop
vertex -22.12556 -5.65556 10
vertex -22.20316 -5.53105 8.53707
vertex -22.20316 -5.53105 0
endloop
endfacet
facet normal -0.8486677445275443 -0.5289263270045563 0
outer loop
vertex -22.12556 -5.65556 10
vertex -22.20316 -5.53105 0
vertex -22.12556 -5.65556 0
endloop
endfacet
facet normal -0.8486677445275443 -0.5289263270045563 0
outer loop
vertex -22.20316 -5.53105 8.53707
vertex -22.12556 -5.65556 10
vertex -22.20316 -5.53105 10
endloop
endfacet
facet normal -0.8486433717821268 -0.52896543131878 0
outer loop
vertex -22.20316 -5.53105 8.53707
vertex -22.65603 -4.80449 0
vertex -22.20316 -5.53105 0
endloop
endfacet
facet normal -0.8486433717821268 -0.52896543131878 0
outer loop
vertex -22.20316 -5.53105 8.53707
vertex -22.20316 -5.53105 10
vertex -22.65603 -4.80449 10
endloop
endfacet
facet normal -0.8486433717821268 -0.52896543131878 0
outer loop
vertex -22.20316 -5.53105 8.53707
vertex -22.65603 -4.80449 10
vertex -22.65603 -4.80449 0
endloop
endfacet
facet normal 0.7247930556104439 0.6889666367385839 0
outer loop
vertex -7.17923 7.17545 10
vertex -7 6.9869 7.40601
vertex -7 6.9869 0
endloop
endfacet
facet normal 0.724793055610444 0.688966636738584 0
outer loop
vertex -7.17923 7.17545 10
vertex -7 6.9869 0
vertex -7.17923 7.17545 0
endloop
endfacet
facet normal 0.7247930556104439 0.6889666367385839 0
outer loop
vertex -7 6.9869 7.40601
vertex -7.17923 7.17545 10
vertex -7 6.9869 10
endloop
endfacet
facet normal -0.9680759822531595 -0.250656922075933 0
outer loop
vertex -23.44598 -2.96369 0
vertex -23.44598 -2.96369 10
vertex -23.69735 -1.99286 0
endloop
endfacet
facet normal -0.9680759822531595 -0.250656922075933 0
outer loop
vertex -23.69735 -1.99286 0
vertex -23.44598 -2.96369 10
vertex -23.69735 -1.99286 10
endloop
endfacet
facet normal 0.6513734049688649 -0.7587573309690437 0
outer loop
vertex -7.17923 -7.17545 0
vertex -7.17923 -7.17545 10
vertex -7.94015 -7.82868 0
endloop
endfacet
facet normal 0.6513734049688649 -0.7587573309690437 0
outer loop
vertex -7.94015 -7.82868 0
vertex -7.17923 -7.17545 10
vertex -7.94015 -7.82868 10
endloop
endfacet
facet normal -0.897805552811701 -0.4403920859194407 0
outer loop
vertex -22.65603 -4.80449 0
vertex -22.65603 -4.80449 10
vertex -23.09768 -3.90412 0
endloop
endfacet
facet normal -0.897805552811701 -0.4403920859194407 0
outer loop
vertex -23.09768 -3.90412 0
vertex -22.65603 -4.80449 10
vertex -23.09768 -3.90412 10
endloop
endfacet
facet normal -0.9987167029525481 -0.0506453082090709 0
outer loop
vertex -23.84921 -1.00157 0
vertex -23.84921 -1.00157 10
vertex -23.9 0 0
endloop
endfacet
facet normal -0.9987167029525481 -0.0506453082090709 0
outer loop
vertex -23.9 0 0
vertex -23.84921 -1.00157 10
vertex -23.9 0 10
endloop
endfacet
facet normal 0.4852974622473656 -0.8743491139906684 0
outer loop
vertex -8.76326 -8.40158 0
vertex -8.76326 -8.40158 10
vertex -9.6401 -8.88826 0
endloop
endfacet
facet normal 0.4852974622473656 -0.8743491139906684 0
outer loop
vertex -9.6401 -8.88826 0
vertex -8.76326 -8.40158 10
vertex -9.6401 -8.88826 10
endloop
endfacet
facet normal -0.6513734049688658 -0.7587573309690431 0
outer loop
vertex -20.05985 -7.82868 0
vertex -20.05985 -7.82868 10
vertex -20.82077 -7.17545 0
endloop
endfacet
facet normal -0.6513734049688658 -0.7587573309690431 0
outer loop
vertex -20.82077 -7.17545 0
vertex -20.05985 -7.82868 10
vertex -20.82077 -7.17545 10
endloop
endfacet
facet normal -0.10116222884220087 -0.9948699429853523 0
outer loop
vertex -14.50143 -9.88729 0
vertex -14.50143 -9.88729 10
vertex -15.49913 -9.78584 0
endloop
endfacet
facet normal -0.10116222884220087 -0.9948699429853523 0
outer loop
vertex -15.49913 -9.78584 0
vertex -14.50143 -9.88729 10
vertex -15.49913 -9.78584 10
endloop
endfacet
facet normal -0.39436332873388996 0.9189546044010694 0
outer loop
vertex -18.3599 8.88826 0
vertex -18.3599 8.88826 10
vertex -17.43832 9.28375 0
endloop
endfacet
facet normal -0.39436332873388996 0.9189546044010694 0
outer loop
vertex -17.43832 9.28375 0
vertex -18.3599 8.88826 10
vertex -17.43832 9.28375 10
endloop
endfacet
facet normal -0.20130431145125072 -0.979528751079384 0
outer loop
vertex -15.49913 -9.78584 0
vertex -15.49913 -9.78584 10
vertex -16.48146 -9.58396 0
endloop
endfacet
facet normal -0.20130431145125072 -0.979528751079384 0
outer loop
vertex -16.48146 -9.58396 0
vertex -15.49913 -9.78584 10
vertex -16.48146 -9.58396 10
endloop
endfacet
facet normal -0.9987167029525481 0.0506453082090709 0
outer loop
vertex -23.9 0 0
vertex -23.9 0 10
vertex -23.84921 1.00157 0
endloop
endfacet
facet normal -0.9987167029525481 0.0506453082090709 0
outer loop
vertex -23.84921 1.00157 0
vertex -23.9 0 10
vertex -23.84921 1.00157 10
endloop
endfacet
facet normal 0.20130431145125036 -0.9795287510793841 0
outer loop
vertex -11.51854 -9.58396 0
vertex -11.51854 -9.58396 10
vertex -12.50087 -9.78584 0
endloop
endfacet
facet normal 0.20130431145125036 -0.9795287510793841 0
outer loop
vertex -12.50087 -9.78584 0
vertex -11.51854 -9.58396 10
vertex -12.50087 -9.78584 10
endloop
endfacet
facet normal 0.29935698465285765 0.9541411822888418 0
outer loop
vertex -11.51854 9.58396 0
vertex -11.51854 9.58396 10
vertex -10.56168 9.28375 0
endloop
endfacet
facet normal 0.29935698465285765 0.9541411822888418 0
outer loop
vertex -10.56168 9.28375 0
vertex -11.51854 9.58396 10
vertex -10.56168 9.28375 10
endloop
endfacet
facet normal 0.10116222884220087 0.9948699429853523 0
outer loop
vertex -13.49857 9.88729 0
vertex -13.49857 9.88729 10
vertex -12.50087 9.78584 0
endloop
endfacet
facet normal 0.10116222884220087 0.9948699429853523 0
outer loop
vertex -12.50087 9.78584 0
vertex -13.49857 9.88729 10
vertex -12.50087 9.78584 10
endloop
endfacet
facet normal -0.4852974622473648 -0.8743491139906687 0
outer loop
vertex -18.3599 -8.88826 0
vertex -18.3599 -8.88826 10
vertex -19.23674 -8.40158 0
endloop
endfacet
facet normal -0.4852974622473648 -0.8743491139906687 0
outer loop
vertex -19.23674 -8.40158 0
vertex -18.3599 -8.88826 10
vertex -19.23674 -8.40158 10
endloop
endfacet
facet normal -0.9377511663742611 0.34730786049802076 0
outer loop
vertex -23.44598 2.96369 0
vertex -23.44598 2.96369 10
vertex -23.09768 3.90412 0
endloop
endfacet
facet normal -0.9377511663742611 0.34730786049802076 0
outer loop
vertex -23.09768 3.90412 0
vertex -23.44598 2.96369 10
vertex -23.09768 3.90412 10
endloop
endfacet
facet normal 0.5712672288448415 0.820764127656622 0
outer loop
vertex -8.76326 8.40158 0
vertex -8.76326 8.40158 10
vertex -7.94015 7.82868 0
endloop
endfacet
facet normal 0.5712672288448415 0.820764127656622 0
outer loop
vertex -7.94015 7.82868 0
vertex -8.76326 8.40158 10
vertex -7.94015 7.82868 10
endloop
endfacet
facet normal -0.9680759822531595 0.250656922075933 0
outer loop
vertex -23.69735 1.99286 0
vertex -23.69735 1.99286 10
vertex -23.44598 2.96369 0
endloop
endfacet
facet normal -0.9680759822531595 0.250656922075933 0
outer loop
vertex -23.44598 2.96369 0
vertex -23.69735 1.99286 10
vertex -23.44598 2.96369 10
endloop
endfacet
facet normal 0.5712462043858776 -0.8207787606747193 0
outer loop
vertex -8.64284 -8.31777 1.46293
vertex -8.76326 -8.40158 0
vertex -8.64284 -8.31777 0
endloop
endfacet
facet normal 0.5712462043858777 -0.8207787606747193 0
outer loop
vertex -8.64284 -8.31777 1.46293
vertex -8.64284 -8.31777 10
vertex -8.76326 -8.40158 10
endloop
endfacet
facet normal 0.5712462043858776 -0.8207787606747193 0
outer loop
vertex -8.64284 -8.31777 1.46293
vertex -8.76326 -8.40158 10
vertex -8.76326 -8.40158 0
endloop
endfacet
facet normal 0.5712718077401275 -0.8207609406406512 0
outer loop
vertex -8.14875 -7.97387 7.46566
vertex -8.64284 -8.31777 1.46293
vertex -8.64284 -8.31777 0
endloop
endfacet
facet normal 0.5712718077401278 -0.8207609406406513 0
outer loop
vertex -8.14875 -7.97387 7.46566
vertex -8.64284 -8.31777 0
vertex -8.14875 -7.97387 0
endloop
endfacet
facet normal 0.5712718077401276 -0.8207609406406512 0
outer loop
vertex -8.14875 -7.97387 7.46566
vertex -8.14875 -7.97387 10
vertex -8.64284 -8.31777 10
endloop
endfacet
facet normal 0.5712718077401276 -0.8207609406406511 0
outer loop
vertex -8.14875 -7.97387 7.46566
vertex -8.64284 -8.31777 10
vertex -8.64284 -8.31777 1.46293
endloop
endfacet
facet normal 0.5712685198211185 -0.8207632291114096 0
outer loop
vertex -8.14875 -7.97387 7.46566
vertex -8.14875 -7.97387 0
vertex -7.94015 -7.82868 0
endloop
endfacet
facet normal 0.5712685198211185 -0.8207632291114095 0
outer loop
vertex -8.14875 -7.97387 7.46566
vertex -7.94015 -7.82868 0
vertex -7.94015 -7.82868 10
endloop
endfacet
facet normal 0.5712685198211186 -0.8207632291114096 0
outer loop
vertex -8.14875 -7.97387 7.46566
vertex -7.94015 -7.82868 10
vertex -8.14875 -7.97387 10
endloop
endfacet
facet normal -0.10116222884220087 0.9948699429853523 0
outer loop
vertex -15.49913 9.78584 0
vertex -15.49913 9.78584 10
vertex -14.50143 9.88729 0
endloop
endfacet
facet normal -0.10116222884220087 0.9948699429853523 0
outer loop
vertex -14.50143 9.88729 0
vertex -15.49913 9.78584 10
vertex -14.50143 9.88729 10
endloop
endfacet
facet normal 0.3943633287338893 0.9189546044010696 0
outer loop
vertex -10.56168 9.28375 0
vertex -10.56168 9.28375 10
vertex -9.6401 8.88826 0
endloop
endfacet
facet normal 0.3943633287338893 0.9189546044010696 0
outer loop
vertex -9.6401 8.88826 0
vertex -10.56168 9.28375 10
vertex -9.6401 8.88826 10
endloop
endfacet
facet normal -0.5712672288448418 0.8207641276566218 0
outer loop
vertex -20.05985 7.82868 0
vertex -20.05985 7.82868 10
vertex -19.23674 8.40158 0
endloop
endfacet
facet normal -0.5712672288448418 0.8207641276566218 0
outer loop
vertex -19.23674 8.40158 0
vertex -20.05985 7.82868 10
vertex -19.23674 8.40158 10
endloop
endfacet
facet normal -0.9884683306443113 0.15142773627459605 0
outer loop
vertex -23.84921 1.00157 0
vertex -23.84921 1.00157 10
vertex -23.69735 1.99286 0
endloop
endfacet
facet normal -0.9884683306443113 0.15142773627459605 0
outer loop
vertex -23.69735 1.99286 0
vertex -23.84921 1.00157 10
vertex -23.69735 1.99286 10
endloop
endfacet
facet normal 0.3943633287338893 -0.9189546044010696 0
outer loop
vertex -9.6401 -8.88826 0
vertex -9.6401 -8.88826 10
vertex -10.56168 -9.28375 0
endloop
endfacet
facet normal 0.3943633287338893 -0.9189546044010696 0
outer loop
vertex -10.56168 -9.28375 0
vertex -9.6401 -8.88826 10
vertex -10.56168 -9.28375 10
endloop
endfacet
facet normal -0.39436332873388996 -0.9189546044010694 0
outer loop
vertex -17.43832 -9.28375 0
vertex -17.43832 -9.28375 10
vertex -18.3599 -8.88826 0
endloop
endfacet
facet normal -0.39436332873388996 -0.9189546044010694 0
outer loop
vertex -18.3599 -8.88826 0
vertex -17.43832 -9.28375 10
vertex -18.3599 -8.88826 10
endloop
endfacet
facet normal 0.29935698465285765 -0.9541411822888418 0
outer loop
vertex -10.56168 -9.28375 0
vertex -10.56168 -9.28375 10
vertex -11.51854 -9.58396 0
endloop
endfacet
facet normal 0.29935698465285765 -0.9541411822888418 0
outer loop
vertex -11.51854 -9.58396 0
vertex -10.56168 -9.28375 10
vertex -11.51854 -9.58396 10
endloop
endfacet
facet normal -0.9377511663742611 -0.34730786049802076 0
outer loop
vertex -23.09768 -3.90412 0
vertex -23.09768 -3.90412 10
vertex -23.44598 -2.96369 0
endloop
endfacet
facet normal -0.9377511663742611 -0.34730786049802076 0
outer loop
vertex -23.44598 -2.96369 0
vertex -23.09768 -3.90412 10
vertex -23.44598 -2.96369 10
endloop
endfacet
facet normal -0.9884683306443113 -0.15142773627459605 0
outer loop
vertex -23.69735 -1.99286 0
vertex -23.69735 -1.99286 10
vertex -23.84921 -1.00157 0
endloop
endfacet
facet normal -0.9884683306443113 -0.15142773627459605 0
outer loop
vertex -23.84921 -1.00157 0
vertex -23.69735 -1.99286 10
vertex -23.84921 -1.00157 10
endloop
endfacet
facet normal -0.7907761771462614 -0.6121054138446618 0
outer loop
vertex -21.51171 -6.44859 0
vertex -21.51171 -6.44859 10
vertex -22.12556 -5.65556 0
endloop
endfacet
facet normal -0.7907761771462614 -0.6121054138446618 0
outer loop
vertex -22.12556 -5.65556 0
vertex -21.51171 -6.44859 10
vertex -22.12556 -5.65556 10
endloop
endfacet
facet normal -0.7907761771462614 0.6121054138446618 0
outer loop
vertex -22.12556 5.65556 0
vertex -22.12556 5.65556 10
vertex -21.51171 6.44859 0
endloop
endfacet
facet normal -0.7907761771462614 0.6121054138446618 0
outer loop
vertex -21.51171 6.44859 0
vertex -22.12556 5.65556 10
vertex -21.51171 6.44859 10
endloop
endfacet
facet normal -0.8486469374957465 0.5289597106388071 0
outer loop
vertex -22.65603 4.80449 0
vertex -22.65603 4.80449 10
vertex -22.12556 5.65556 0
endloop
endfacet
facet normal -0.8486469374957465 0.5289597106388071 0
outer loop
vertex -22.12556 5.65556 0
vertex -22.65603 4.80449 10
vertex -22.12556 5.65556 10
endloop
endfacet
facet normal -0.20130431145125072 0.979528751079384 0
outer loop
vertex -16.48146 9.58396 0
vertex -16.48146 9.58396 10
vertex -15.49913 9.78584 0
endloop
endfacet
facet normal -0.20130431145125072 0.979528751079384 0
outer loop
vertex -15.49913 9.78584 0
vertex -16.48146 9.58396 10
vertex -15.49913 9.78584 10
endloop
endfacet
facet normal 0.9987167029525481 -0.05064530820907267 0
outer loop
vertex -9.84921 1.00157 0
vertex -9.9 0 10
vertex -9.9 0 0
endloop
endfacet
facet normal 0.9987167029525481 -0.05064530820907267 0
outer loop
vertex -9.84921 1.00157 10
vertex -9.9 0 10
vertex -9.84921 1.00157 0
endloop
endfacet
facet normal 0.9680759822531599 0.2506569220759314 0
outer loop
vertex -9.69735 -1.99286 0
vertex -9.44598 -2.96369 10
vertex -9.44598 -2.96369 0
endloop
endfacet
facet normal 0.9680759822531599 0.2506569220759314 0
outer loop
vertex -9.69735 -1.99286 10
vertex -9.44598 -2.96369 10
vertex -9.69735 -1.99286 0
endloop
endfacet
facet normal 0.790776177146261 0.6121054138446623 0
outer loop
vertex -8.12556 -5.65556 0
vertex -7.51171 -6.44859 10
vertex -7.51171 -6.44859 0
endloop
endfacet
facet normal 0.790776177146261 0.6121054138446623 0
outer loop
vertex -8.12556 -5.65556 10
vertex -7.51171 -6.44859 10
vertex -8.12556 -5.65556 0
endloop
endfacet
facet normal 0.9987167029525481 0.05064530820907267 0
outer loop
vertex -9.9 0 0
vertex -9.84921 -1.00157 10
vertex -9.84921 -1.00157 0
endloop
endfacet
facet normal 0.9987167029525481 0.05064530820907267 0
outer loop
vertex -9.9 0 10
vertex -9.84921 -1.00157 10
vertex -9.9 0 0
endloop
endfacet
facet normal 0.9680759822531599 -0.2506569220759314 0
outer loop
vertex -9.44598 2.96369 0
vertex -9.69735 1.99286 10
vertex -9.69735 1.99286 0
endloop
endfacet
facet normal 0.9680759822531599 -0.2506569220759314 0
outer loop
vertex -9.44598 2.96369 10
vertex -9.69735 1.99286 10
vertex -9.44598 2.96369 0
endloop
endfacet
facet normal 0.8486469374957472 -0.5289597106388058 0
outer loop
vertex -8.12556 5.65556 0
vertex -8.65603 4.80449 10
vertex -8.65603 4.80449 0
endloop
endfacet
facet normal 0.8486469374957472 -0.5289597106388058 0
outer loop
vertex -8.12556 5.65556 10
vertex -8.65603 4.80449 10
vertex -8.12556 5.65556 0
endloop
endfacet
facet normal 0.8978055528117003 -0.44039208591944207 0
outer loop
vertex -8.65603 4.80449 0
vertex -9.09768 3.90412 10
vertex -9.09768 3.90412 0
endloop
endfacet
facet normal 0.8978055528117003 -0.44039208591944207 0
outer loop
vertex -8.65603 4.80449 10
vertex -9.09768 3.90412 10
vertex -8.65603 4.80449 0
endloop
endfacet
facet normal 0.8978055528117003 0.44039208591944207 0
outer loop
vertex -9.09768 -3.90412 0
vertex -8.65603 -4.80449 10
vertex -8.65603 -4.80449 0
endloop
endfacet
facet normal 0.8978055528117003 0.44039208591944207 0
outer loop
vertex -9.09768 -3.90412 10
vertex -8.65603 -4.80449 10
vertex -9.09768 -3.90412 0
endloop
endfacet
facet normal 0.790776177146261 -0.6121054138446623 0
outer loop
vertex -7.51171 6.44859 0
vertex -8.12556 5.65556 10
vertex -8.12556 5.65556 0
endloop
endfacet
facet normal 0.790776177146261 -0.6121054138446623 0
outer loop
vertex -7.51171 6.44859 10
vertex -8.12556 5.65556 10
vertex -7.51171 6.44859 0
endloop
endfacet
facet normal 0.8486469374957472 0.5289597106388058 0
outer loop
vertex -8.65603 -4.80449 0
vertex -8.12556 -5.65556 10
vertex -8.12556 -5.65556 0
endloop
endfacet
facet normal 0.8486469374957472 0.5289597106388058 0
outer loop
vertex -8.65603 -4.80449 10
vertex -8.12556 -5.65556 10
vertex -8.65603 -4.80449 0
endloop
endfacet
facet normal 0.9377511663742606 0.34730786049802237 0
outer loop
vertex -9.44598 -2.96369 0
vertex -9.09768 -3.90412 10
vertex -9.09768 -3.90412 0
endloop
endfacet
facet normal 0.9377511663742606 0.34730786049802237 0
outer loop
vertex -9.44598 -2.96369 10
vertex -9.09768 -3.90412 10
vertex -9.44598 -2.96369 0
endloop
endfacet
facet normal 0.9884683306443113 -0.15142773627459605 0
outer loop
vertex -9.69735 1.99286 0
vertex -9.84921 1.00157 10
vertex -9.84921 1.00157 0
endloop
endfacet
facet normal 0.9884683306443113 -0.15142773627459605 0
outer loop
vertex -9.69735 1.99286 10
vertex -9.84921 1.00157 10
vertex -9.69735 1.99286 0
endloop
endfacet
facet normal 0.7247872817510402 0.6889727107889965 0
outer loop
vertex -7 -6.9869 7.40601
vertex -7 -6.9869 0
vertex -7.51171 -6.44859 0
endloop
endfacet
facet normal 0.7247872817510403 0.6889727107889965 0
outer loop
vertex -7 -6.9869 10
vertex -7 -6.9869 7.40601
vertex -7.51171 -6.44859 0
endloop
endfacet
facet normal 0.7247872817510403 0.6889727107889965 0
outer loop
vertex -7 -6.9869 10
vertex -7.51171 -6.44859 0
vertex -7.51171 -6.44859 10
endloop
endfacet
facet normal 0.7247872817510403 -0.6889727107889965 0
outer loop
vertex -7 6.9869 2.59399
vertex -7.51171 6.44859 10
vertex -7.51171 6.44859 0
endloop
endfacet
facet normal 0.7247872817510403 -0.6889727107889965 0
outer loop
vertex -7 6.9869 2.59399
vertex -7.51171 6.44859 0
vertex -7 6.9869 0
endloop
endfacet
facet normal 0.7247872817510402 -0.6889727107889965 0
outer loop
vertex -7 6.9869 10
vertex -7.51171 6.44859 10
vertex -7 6.9869 2.59399
endloop
endfacet
facet normal 0.9377511663742606 -0.34730786049802237 0
outer loop
vertex -9.09768 3.90412 0
vertex -9.44598 2.96369 10
vertex -9.44598 2.96369 0
endloop
endfacet
facet normal 0.9377511663742606 -0.34730786049802237 0
outer loop
vertex -9.09768 3.90412 10
vertex -9.44598 2.96369 10
vertex -9.09768 3.90412 0
endloop
endfacet
facet normal 0.9884683306443113 0.15142773627459605 0
outer loop
vertex -9.84921 -1.00157 0
vertex -9.69735 -1.99286 10
vertex -9.69735 -1.99286 0
endloop
endfacet
facet normal 0.9884683306443113 0.15142773627459605 0
outer loop
vertex -9.84921 -1.00157 10
vertex -9.69735 -1.99286 10
vertex -9.84921 -1.00157 0
endloop
endfacet
facet normal 0 0 1
outer loop
vertex 9.84921 1.00157 10
vertex 9.69735 1.99286 10
vertex 9.44598 2.96369 10
endloop
endfacet
facet normal 0 0 1
outer loop
vertex 9.84921 1.00157 10
vertex 9.44598 2.96369 10
vertex 9.09768 3.90412 10
endloop
endfacet
facet normal 0 0 1
outer loop
vertex 9.84921 1.00157 10
vertex 9.09768 3.90412 10
vertex 8.65603 4.80449 10
endloop
endfacet
facet normal 0 0 1
outer loop
vertex 9.84921 1.00157 10
vertex 8.65603 4.80449 10
vertex 8.12556 5.65556 10
endloop
endfacet
facet normal 0 0 1
outer loop
vertex 9.84921 1.00157 10
vertex 8.12556 5.65556 10
vertex 7.51171 6.44859 10
endloop
endfacet
facet normal 0 0 1
outer loop
vertex 9.84921 1.00157 10
vertex 7.51171 6.44859 10
vertex 6.82077 7.17545 10
endloop
endfacet
facet normal 0 0 1
outer loop
vertex 9.84921 1.00157 10
vertex 6.82077 7.17545 10
vertex 6.05985 7.82868 10
endloop
endfacet
facet normal 0 0 1
outer loop
vertex 9.84921 1.00157 10
vertex 6.05985 7.82868 10
vertex 5.23674 8.40158 10
endloop
endfacet
facet normal 0 0 1
outer loop
vertex 9.84921 1.00157 10
vertex 5.23674 8.40158 10
vertex 4.3599 8.88826 10
endloop
endfacet
facet normal 0 0 1
outer loop
vertex 9.84921 1.00157 10
vertex 4.3599 8.88826 10
vertex 3.43832 9.28375 10
endloop
endfacet
facet normal 0 0 1
outer loop
vertex 9.84921 1.00157 10
vertex 3.43832 9.28375 10
vertex 2.48146 9.58396 10
endloop
endfacet
facet normal 0 0 1
outer loop
vertex 9.84921 1.00157 10
vertex 2.48146 9.58396 10
vertex 1.49913 9.78584 10
endloop
endfacet
facet normal 0 0 1
outer loop
vertex 9.84921 1.00157 10
vertex 1.49913 9.78584 10
vertex 0.50143 9.88729 10
endloop
endfacet
facet normal 0 0 1
outer loop
vertex 9.84921 1.00157 10
vertex 0.50143 9.88729 10
vertex -0.50143 9.88729 10
endloop
endfacet
facet normal 0 0 1
outer loop
vertex 9.84921 1.00157 10
vertex -0.50143 9.88729 10
vertex -1.49913 9.78584 10
endloop
endfacet
facet normal 0 0 1
outer loop
vertex 9.84921 1.00157 10
vertex -1.49913 9.78584 10
vertex -2.48146 9.58396 10
endloop
endfacet
facet normal 0 0 1
outer loop
vertex 9.84921 1.00157 10
vertex -2.48146 9.58396 10
vertex -3.43832 9.28375 10
endloop
endfacet
facet normal 0 0 1
outer loop
vertex 9.84921 1.00157 10
vertex -3.43832 9.28375 10
vertex -4.3599 8.88826 10
endloop
endfacet
facet normal 0 0 1
outer loop
vertex 9.84921 1.00157 10
vertex -4.3599 8.88826 10
vertex -5.23674 8.40158 10
endloop
endfacet
facet normal 0 0 1
outer loop
vertex 9.84921 1.00157 10
vertex -5.23674 8.40158 10
vertex -6.05985 7.82868 10
endloop
endfacet
facet normal 0 0 1
outer loop
vertex 9.84921 1.00157 10
vertex -6.05985 7.82868 10
vertex -6.82077 7.17545 10
endloop
endfacet
facet normal 0 0 1
outer loop
vertex 9.84921 1.00157 10
vertex -6.82077 7.17545 10
vertex -6.98184 7.006 10
endloop
endfacet
facet normal 0 0 1
outer loop
vertex 9.84921 1.00157 10
vertex -6.98184 7.006 10
vertex 7.98246 -5.84043 10
endloop
endfacet
facet normal 0 0 1
outer loop
vertex 9.84921 1.00157 10
vertex 7.98246 -5.84043 10
vertex 8.12556 -5.65556 10
endloop
endfacet
facet normal 0 0 1
outer loop
vertex 9.84921 1.00157 10
vertex 8.12556 -5.65556 10
vertex 8.65603 -4.80449 10
endloop
endfacet
facet normal 0 0 1
outer loop
vertex 9.84921 1.00157 10
vertex 8.65603 -4.80449 10
vertex 9.09768 -3.90412 10
endloop
endfacet
facet normal 0 0 1
outer loop
vertex 9.84921 1.00157 10
vertex 9.09768 -3.90412 10
vertex 9.44598 -2.96369 10
endloop
endfacet
facet normal 0 0 1
outer loop
vertex 9.84921 1.00157 10
vertex 9.44598 -2.96369 10
vertex 9.69735 -1.99286 10
endloop
endfacet
facet normal 0 0 1
outer loop
vertex 9.84921 1.00157 10
vertex 9.69735 -1.99286 10
vertex 9.84921 -1.00157 10
endloop
endfacet
facet normal 0 0 1
outer loop
vertex 9.84921 1.00157 10
vertex 9.84921 -1.00157 10
vertex 9.9 0 10
endloop
endfacet
facet normal 0 0 1
outer loop
vertex -6.98184 7.006 10
vertex -7.51171 6.44859 10
vertex -8.12556 5.65556 10
endloop
endfacet
facet normal 0 0 1
outer loop
vertex -6.98184 7.006 10
vertex -8.12556 5.65556 10
vertex -8.65603 4.80449 10
endloop
endfacet
facet normal 0 0 1
outer loop
vertex -6.98184 7.006 10
vertex -8.65603 4.80449 10
vertex -9.09768 3.90412 10
endloop
endfacet
facet normal 0 0 1
outer loop
vertex -6.98184 7.006 10
vertex -9.09768 3.90412 10
vertex -9.44598 2.96369 10
endloop
endfacet
facet normal 0 0 1
outer loop
vertex -6.98184 7.006 10
vertex -9.44598 2.96369 10
vertex -9.69735 1.99286 10
endloop
endfacet
facet normal 0 0 1
outer loop
vertex -6.98184 7.006 10
vertex -9.69735 1.99286 10
vertex -9.84921 1.00157 10
endloop
endfacet
facet normal 0 0 1
outer loop
vertex -6.98184 7.006 10
vertex -9.84921 1.00157 10
vertex -9.9 0 10
endloop
endfacet
facet normal 0 0 1
outer loop
vertex -6.98184 7.006 10
vertex -9.9 0 10
vertex -9.84921 -1.00157 10
endloop
endfacet
facet normal 0 0 1
outer loop
vertex -6.98184 7.006 10
vertex -9.84921 -1.00157 10
vertex -9.69735 -1.99286 10
endloop
endfacet
facet normal 0 0 1
outer loop
vertex -6.98184 7.006 10
vertex -9.69735 -1.99286 10
vertex -9.44598 -2.96369 10
endloop
endfacet
facet normal 0 0 1
outer loop
vertex -6.98184 7.006 10
vertex -9.44598 -2.96369 10
vertex -9.09768 -3.90412 10
endloop
endfacet
facet normal 0 0 1
outer loop
vertex -6.98184 7.006 10
vertex -9.09768 -3.90412 10
vertex -8.65603 -4.80449 10
endloop
endfacet
facet normal 0 0 1
outer loop
vertex -6.98184 7.006 10
vertex -8.65603 -4.80449 10
vertex -8.12556 -5.65556 10
endloop
endfacet
facet normal 0 0 1
outer loop
vertex -6.98184 7.006 10
vertex -8.12556 -5.65556 10
vertex -7.51171 -6.44859 10
endloop
endfacet
facet normal 0 0 1
outer loop
vertex -6.98184 7.006 10
vertex -7.51171 -6.44859 10
vertex -6.82077 -7.17545 10
endloop
endfacet
facet normal 0 0 1
outer loop
vertex -6.98184 7.006 10
vertex -6.82077 -7.17545 10
vertex -6.05985 -7.82868 10
endloop
endfacet
facet normal 0 0 1
outer loop
vertex -6.98184 7.006 10
vertex -6.05985 -7.82868 10
vertex -5.23674 -8.40158 10
endloop
endfacet
facet normal 0 0 1
outer loop
vertex -6.98184 7.006 10
vertex -5.23674 -8.40158 10
vertex -4.3599 -8.88826 10
endloop
endfacet
facet normal 0 0 1
outer loop
vertex -6.98184 7.006 10
vertex -4.3599 -8.88826 10
vertex -3.43832 -9.28375 10
endloop
endfacet
facet normal 0 0 1
outer loop
vertex -6.98184 7.006 10
vertex -3.43832 -9.28375 10
vertex -2.48146 -9.58396 10
endloop
endfacet
facet normal 0 0 1
outer loop
vertex -6.98184 7.006 10
vertex -2.48146 -9.58396 10
vertex -1.49913 -9.78584 10
endloop
endfacet
facet normal 0 0 1
outer loop
vertex -6.98184 7.006 10
vertex -1.49913 -9.78584 10
vertex -0.50143 -9.88729 10
endloop
endfacet
facet normal 0 0 1
outer loop
vertex -6.98184 7.006 10
vertex -0.50143 -9.88729 10
vertex 0.50143 -9.88729 10
endloop
endfacet
facet normal 0 0 1
outer loop
vertex -6.98184 7.006 10
vertex 0.50143 -9.88729 10
vertex 1.49913 -9.78584 10
endloop
endfacet
facet normal 0 0 1
outer loop
vertex -6.98184 7.006 10
vertex 1.49913 -9.78584 10
vertex 2.48146 -9.58396 10
endloop
endfacet
facet normal 0 0 1
outer loop
vertex -6.98184 7.006 10
vertex 2.48146 -9.58396 10
vertex 3.43832 -9.28375 10
endloop
endfacet
facet normal 0 0 1
outer loop
vertex -6.98184 7.006 10
vertex 3.43832 -9.28375 10
vertex 4.3599 -8.88826 10
endloop
endfacet
facet normal 0 0 1
outer loop
vertex -6.98184 7.006 10
vertex 4.3599 -8.88826 10
vertex 5.23674 -8.40158 10
endloop
endfacet
facet normal 0 0 1
outer loop
vertex -6.98184 7.006 10
vertex 5.23674 -8.40158 10
vertex 6.05985 -7.82868 10
endloop
endfacet
facet normal 0 0 1
outer loop
vertex -6.98184 7.006 10
vertex 6.05985 -7.82868 10
vertex 6.82077 -7.17545 10
endloop
endfacet
facet normal 0 0 1
outer loop
vertex -6.98184 7.006 10
vertex 6.82077 -7.17545 10
vertex 7.51171 -6.44859 10
endloop
endfacet
facet normal 0 0 1
outer loop
vertex -6.98184 7.006 10
vertex 7.51171 -6.44859 10
vertex 7.98246 -5.84043 10
endloop
endfacet
facet normal 0 0 -1
outer loop
vertex 9.69735 -1.99286 0
vertex 9.44598 -2.96369 0
vertex 9.09768 -3.90412 0
endloop
endfacet
facet normal 0 0 -1
outer loop
vertex 9.69735 -1.99286 0
vertex 9.09768 -3.90412 0
vertex 8.65603 -4.80449 0
endloop
endfacet
facet normal 0 0 -1
outer loop
vertex 9.69735 -1.99286 0
vertex 8.65603 -4.80449 0
vertex 8.12556 -5.65556 0
endloop
endfacet
facet normal 0 0 -1
outer loop
vertex 9.69735 -1.99286 0
vertex 8.12556 -5.65556 0
vertex 7.98246 -5.84043 0
endloop
endfacet
facet normal 0 0 -1
outer loop
vertex 9.69735 -1.99286 0
vertex 7.98246 -5.84043 0
vertex -6.98184 7.006 0
endloop
endfacet
facet normal 0 0 -1
outer loop
vertex 9.69735 -1.99286 0
vertex -6.98184 7.006 0
vertex -6.82077 7.17545 0
endloop
endfacet
facet normal 0 0 -1
outer loop
vertex 9.69735 -1.99286 0
vertex -6.82077 7.17545 0
vertex -6.05985 7.82868 0
endloop
endfacet
facet normal 0 0 -1
outer loop
vertex 9.69735 -1.99286 0
vertex -6.05985 7.82868 0
vertex -5.23674 8.40158 0
endloop
endfacet
facet normal 0 0 -1
outer loop
vertex 9.69735 -1.99286 0
vertex -5.23674 8.40158 0
vertex -4.3599 8.88826 0
endloop
endfacet
facet normal 0 0 -1
outer loop
vertex 9.69735 -1.99286 0
vertex -4.3599 8.88826 0
vertex -3.43832 9.28375 0
endloop
endfacet
facet normal 0 0 -1
outer loop
vertex 9.69735 -1.99286 0
vertex -3.43832 9.28375 0
vertex -2.48146 9.58396 0
endloop
endfacet
facet normal 0 0 -1
outer loop
vertex 9.69735 -1.99286 0
vertex -2.48146 9.58396 0
vertex -1.49913 9.78584 0
endloop
endfacet
facet normal 0 0 -1
outer loop
vertex 9.69735 -1.99286 0
vertex -1.49913 9.78584 0
vertex -0.50143 9.88729 0
endloop
endfacet
facet normal 0 0 -1
outer loop
vertex 9.69735 -1.99286 0
vertex -0.50143 9.88729 0
vertex 0.50143 9.88729 0
endloop
endfacet
facet normal 0 0 -1
outer loop
vertex 9.69735 -1.99286 0
vertex 0.50143 9.88729 0
vertex 1.49913 9.78584 0
endloop
endfacet
facet normal 0 0 -1
outer loop
vertex 9.69735 -1.99286 0
vertex 1.49913 9.78584 0
vertex 2.48146 9.58396 0
endloop
endfacet
facet normal 0 0 -1
outer loop
vertex 9.69735 -1.99286 0
vertex 2.48146 9.58396 0
vertex 3.43832 9.28375 0
endloop
endfacet
facet normal 0 0 -1
outer loop
vertex 9.69735 -1.99286 0
vertex 3.43832 9.28375 0
vertex 4.3599 8.88826 0
endloop
endfacet
facet normal 0 0 -1
outer loop
vertex 9.69735 -1.99286 0
vertex 4.3599 8.88826 0
vertex 5.23674 8.40158 0
endloop
endfacet
facet normal 0 0 -1
outer loop
vertex 9.69735 -1.99286 0
vertex 5.23674 8.40158 0
vertex 6.05985 7.82868 0
endloop
endfacet
facet normal 0 0 -1
outer loop
vertex 9.69735 -1.99286 0
vertex 6.05985 7.82868 0
vertex 6.82077 7.17545 0
endloop
endfacet
facet normal 0 0 -1
outer loop
vertex 9.69735 -1.99286 0
vertex 6.82077 7.17545 0
vertex 7.51171 6.44859 0
endloop
endfacet
facet normal 0 0 -1
outer loop
vertex 9.69735 -1.99286 0
vertex 7.51171 6.44859 0
vertex 8.12556 5.65556 0
endloop
endfacet
facet normal 0 0 -1
outer loop
vertex 9.69735 -1.99286 0
vertex 8.12556 5.65556 0
vertex 8.65603 4.80449 0
endloop
endfacet
facet normal 0 0 -1
outer loop
vertex 9.69735 -1.99286 0
vertex 8.65603 4.80449 0
vertex 9.09768 3.90412 0
endloop
endfacet
facet normal 0 0 -1
outer loop
vertex 9.69735 -1.99286 0
vertex 9.09768 3.90412 0
vertex 9.44598 2.96369 0
endloop
endfacet
facet normal 0 0 -1
outer loop
vertex 9.69735 -1.99286 0
vertex 9.44598 2.96369 0
vertex 9.69735 1.99286 0
endloop
endfacet
facet normal 0 0 -1
outer loop
vertex 9.69735 -1.99286 0
vertex 9.69735 1.99286 0
vertex 9.84921 1.00157 0
endloop
endfacet
facet normal 0 0 -1
outer loop
vertex 9.69735 -1.99286 0
vertex 9.84921 1.00157 0
vertex 9.9 0 0
endloop
endfacet
facet normal 0 0 -1
outer loop
vertex 9.69735 -1.99286 0
vertex 9.9 0 0
vertex 9.84921 -1.00157 0
endloop
endfacet
facet normal 0 0 -1
outer loop
vertex 7.98246 -5.84043 0
vertex 7.51171 -6.44859 0
vertex 6.82077 -7.17545 0
endloop
endfacet
facet normal 0 0 -1
outer loop
vertex 7.98246 -5.84043 0
vertex 6.82077 -7.17545 0
vertex 6.05985 -7.82868 0
endloop
endfacet
facet normal 0 0 -1
outer loop
vertex 7.98246 -5.84043 0
vertex 6.05985 -7.82868 0
vertex 5.23674 -8.40158 0
endloop
endfacet
facet normal 0 0 -1
outer loop
vertex 7.98246 -5.84043 0
vertex 5.23674 -8.40158 0
vertex 4.3599 -8.88826 0
endloop
endfacet
facet normal 0 0 -1
outer loop
vertex 7.98246 -5.84043 0
vertex 4.3599 -8.88826 0
vertex 3.43832 -9.28375 0
endloop
endfacet
facet normal 0 0 -1
outer loop
vertex 7.98246 -5.84043 0
vertex 3.43832 -9.28375 0
vertex 2.48146 -9.58396 0
endloop
endfacet
facet normal 0 0 -1
outer loop
vertex 7.98246 -5.84043 0
vertex 2.48146 -9.58396 0
vertex 1.49913 -9.78584 0
endloop
endfacet
facet normal 0 0 -1
outer loop
vertex 7.98246 -5.84043 0
vertex 1.49913 -9.78584 0
vertex 0.50143 -9.88729 0
endloop
endfacet
facet normal 0 0 -1
outer loop
vertex 7.98246 -5.84043 0
vertex 0.50143 -9.88729 0
vertex -0.50143 -9.88729 0
endloop
endfacet
facet normal 0 0 -1
outer loop
vertex 7.98246 -5.84043 0
vertex -0.50143 -9.88729 0
vertex -1.49913 -9.78584 0
endloop
endfacet
facet normal 0 0 -1
outer loop
vertex 7.98246 -5.84043 0
vertex -1.49913 -9.78584 0
vertex -2.48146 -9.58396 0
endloop
endfacet
facet normal 0 0 -1
outer loop
vertex 7.98246 -5.84043 0
vertex -2.48146 -9.58396 0
vertex -3.43832 -9.28375 0
endloop
endfacet
facet normal 0 0 -1
outer loop
vertex 7.98246 -5.84043 0
vertex -3.43832 -9.28375 0
vertex -4.3599 -8.88826 0
endloop
endfacet
facet normal 0 0 -1
outer loop
vertex 7.98246 -5.84043 0
vertex -4.3599 -8.88826 0
vertex -5.23674 -8.40158 0
endloop
endfacet
facet normal 0 0 -1
outer loop
vertex 7.98246 -5.84043 0
vertex -5.23674 -8.40158 0
vertex -6.05985 -7.82868 0
endloop
endfacet
facet normal 0 0 -1
outer loop
vertex 7.98246 -5.84043 0
vertex -6.05985 -7.82868 0
vertex -6.82077 -7.17545 0
endloop
endfacet
facet normal 0 0 -1
outer loop
vertex 7.98246 -5.84043 0
vertex -6.82077 -7.17545 0
vertex -7.51171 -6.44859 0
endloop
endfacet
facet normal 0 0 -1
outer loop
vertex 7.98246 -5.84043 0
vertex -7.51171 -6.44859 0
vertex -8.12556 -5.65556 0
endloop
endfacet
facet normal 0 0 -1
outer loop
vertex 7.98246 -5.84043 0
vertex -8.12556 -5.65556 0
vertex -8.65603 -4.80449 0
endloop
endfacet
facet normal 0 0 -1
outer loop
vertex 7.98246 -5.84043 0
vertex -8.65603 -4.80449 0
vertex -9.09768 -3.90412 0
endloop
endfacet
facet normal 0 0 -1
outer loop
vertex 7.98246 -5.84043 0
vertex -9.09768 -3.90412 0
vertex -9.44598 -2.96369 0
endloop
endfacet
facet normal 0 0 -1
outer loop
vertex 7.98246 -5.84043 0
vertex -9.44598 -2.96369 0
vertex -9.69735 -1.99286 0
endloop
endfacet
facet normal 0 0 -1
outer loop
vertex 7.98246 -5.84043 0
vertex -9.69735 -1.99286 0
vertex -9.84921 -1.00157 0
endloop
endfacet
facet normal 0 0 -1
outer loop
vertex 7.98246 -5.84043 0
vertex -9.84921 -1.00157 0
vertex -9.9 0 0
endloop
endfacet
facet normal 0 0 -1
outer loop
vertex 7.98246 -5.84043 0
vertex -9.9 0 0
vertex -9.84921 1.00157 0
endloop
endfacet
facet normal 0 0 -1
outer loop
vertex 7.98246 -5.84043 0
vertex -9.84921 1.00157 0
vertex -9.69735 1.99286 0
endloop
endfacet
facet normal 0 0 -1
outer loop
vertex 7.98246 -5.84043 0
vertex -9.69735 1.99286 0
vertex -9.44598 2.96369 0
endloop
endfacet
facet normal 0 0 -1
outer loop
vertex 7.98246 -5.84043 0
vertex -9.44598 2.96369 0
vertex -9.09768 3.90412 0
endloop
endfacet
facet normal 0 0 -1
outer loop
vertex 7.98246 -5.84043 0
vertex -9.09768 3.90412 0
vertex -8.65603 4.80449 0
endloop
endfacet
facet normal 0 0 -1
outer loop
vertex 7.98246 -5.84043 0
vertex -8.65603 4.80449 0
vertex -8.12556 5.65556 0
endloop
endfacet
facet normal 0 0 -1
outer loop
vertex 7.98246 -5.84043 0
vertex -8.12556 5.65556 0
vertex -7.51171 6.44859 0
endloop
endfacet
facet normal 0 0 -1
outer loop
vertex 7.98246 -5.84043 0
vertex -7.51171 6.44859 0
vertex -6.98184 7.006 0
endloop
endfacet
facet normal 0 -1 0
outer loop
vertex 0.50143 -9.88729 0
vertex 0.50143 -9.88729 10
vertex -0.50143 -9.88729 0
endloop
endfacet
facet normal 0 -1 0
outer loop
vertex -0.50143 -9.88729 0
vertex 0.50143 -9.88729 10
vertex -0.50143 -9.88729 10
endloop
endfacet
facet normal 0.2993569846528574 -0.9541411822888418 0
outer loop
vertex 3.43832 -9.28375 0
vertex 3.43832 -9.28375 10
vertex 2.48146 -9.58396 0
endloop
endfacet
facet normal 0.2993569846528574 -0.9541411822888418 0
outer loop
vertex 2.48146 -9.58396 0
vertex 3.43832 -9.28375 10
vertex 2.48146 -9.58396 10
endloop
endfacet
facet normal -0.20130431145125055 -0.979528751079384 0
outer loop
vertex -1.49913 -9.78584 0
vertex -1.49913 -9.78584 10
vertex -2.48146 -9.58396 0
endloop
endfacet
facet normal -0.20130431145125055 -0.979528751079384 0
outer loop
vertex -2.48146 -9.58396 0
vertex -1.49913 -9.78584 10
vertex -2.48146 -9.58396 10
endloop
endfacet
facet normal -0.9987167029525481 0.05064530820907267 0
outer loop
vertex -9.9 0 0
vertex -9.9 0 10
vertex -9.84921 1.00157 0
endloop
endfacet
facet normal -0.9987167029525481 0.05064530820907267 0
outer loop
vertex -9.84921 1.00157 0
vertex -9.9 0 10
vertex -9.84921 1.00157 10
endloop
endfacet
facet normal -0.7248018349567649 0.6889574007464516 0
outer loop
vertex -6.98184 7.006 2.33123
vertex -6.82077 7.17545 0
vertex -6.98184 7.006 0
endloop
endfacet
facet normal -0.7248018349567649 0.6889574007464515 0
outer loop
vertex -6.98184 7.006 2.33123
vertex -6.98184 7.006 10
vertex -6.82077 7.17545 10
endloop
endfacet
facet normal -0.7248018349567648 0.6889574007464515 0
outer loop
vertex -6.98184 7.006 2.33123
vertex -6.82077 7.17545 10
vertex -6.82077 7.17545 0
endloop
endfacet
facet normal -0.7247848107527096 0.6889753102268318 0
outer loop
vertex -7.51171 6.44859 10
vertex -6.98184 7.006 2.33123
vertex -6.98184 7.006 0
endloop
endfacet
facet normal -0.7247848107527096 0.6889753102268316 0
outer loop
vertex -7.51171 6.44859 10
vertex -6.98184 7.006 0
vertex -7.51171 6.44859 0
endloop
endfacet
facet normal -0.7247848107527098 0.6889753102268317 0
outer loop
vertex -6.98184 7.006 2.33123
vertex -7.51171 6.44859 10
vertex -6.98184 7.006 10
endloop
endfacet
facet normal 0.8978055528117003 -0.44039208591944207 0
outer loop
vertex 9.09768 -3.90412 0
vertex 9.09768 -3.90412 10
vertex 8.65603 -4.80449 0
endloop
endfacet
facet normal 0.8978055528117003 -0.44039208591944207 0
outer loop
vertex 8.65603 -4.80449 0
vertex 9.09768 -3.90412 10
vertex 8.65603 -4.80449 10
endloop
endfacet
facet normal -0.9680759822531599 -0.2506569220759314 0
outer loop
vertex -9.44598 -2.96369 0
vertex -9.44598 -2.96369 10
vertex -9.69735 -1.99286 0
endloop
endfacet
facet normal -0.9680759822531599 -0.2506569220759314 0
outer loop
vertex -9.69735 -1.99286 0
vertex -9.44598 -2.96369 10
vertex -9.69735 -1.99286 10
endloop
endfacet
facet normal 0.6513734049688649 -0.7587573309690437 0
outer loop
vertex 6.82077 -7.17545 0
vertex 6.82077 -7.17545 10
vertex 6.05985 -7.82868 0
endloop
endfacet
facet normal 0.6513734049688649 -0.7587573309690437 0
outer loop
vertex 6.05985 -7.82868 0
vertex 6.82077 -7.17545 10
vertex 6.05985 -7.82868 10
endloop
endfacet
facet normal -0.6513734049688649 -0.7587573309690437 0
outer loop
vertex -6.05985 -7.82868 0
vertex -6.05985 -7.82868 10
vertex -6.82077 -7.17545 0
endloop
endfacet
facet normal -0.6513734049688649 -0.7587573309690437 0
outer loop
vertex -6.82077 -7.17545 0
vertex -6.05985 -7.82868 10
vertex -6.82077 -7.17545 10
endloop
endfacet
facet normal 0.7247887795062087 -0.6889711351732382 0
outer loop
vertex 7.51171 -6.44859 0
vertex 7.51171 -6.44859 10
vertex 6.82077 -7.17545 0
endloop
endfacet
facet normal 0.7247887795062087 -0.6889711351732382 0
outer loop
vertex 6.82077 -7.17545 0
vertex 7.51171 -6.44859 10
vertex 6.82077 -7.17545 10
endloop
endfacet
facet normal 0.4852974622473652 -0.8743491139906686 0
outer loop
vertex 5.23674 -8.40158 0
vertex 5.23674 -8.40158 10
vertex 4.3599 -8.88826 0
endloop
endfacet
facet normal 0.4852974622473652 -0.8743491139906686 0
outer loop
vertex 4.3599 -8.88826 0
vertex 5.23674 -8.40158 10
vertex 4.3599 -8.88826 10
endloop
endfacet
facet normal -0.4852974622473652 -0.8743491139906686 0
outer loop
vertex -4.3599 -8.88826 0
vertex -4.3599 -8.88826 10
vertex -5.23674 -8.40158 0
endloop
endfacet
facet normal -0.4852974622473652 -0.8743491139906686 0
outer loop
vertex -5.23674 -8.40158 0
vertex -4.3599 -8.88826 10
vertex -5.23674 -8.40158 10
endloop
endfacet
facet normal 0 1 0
outer loop
vertex -0.50143 9.88729 0
vertex -0.50143 9.88729 10
vertex 0.50143 9.88729 0
endloop
endfacet
facet normal 0 1 0
outer loop
vertex 0.50143 9.88729 0
vertex -0.50143 9.88729 10
vertex 0.50143 9.88729 10
endloop
endfacet
facet normal -0.10116222884220087 0.9948699429853523 0
outer loop
vertex -1.49913 9.78584 0
vertex -1.49913 9.78584 10
vertex -0.50143 9.88729 0
endloop
endfacet
facet normal -0.10116222884220087 0.9948699429853523 0
outer loop
vertex -0.50143 9.88729 0
vertex -1.49913 9.78584 10
vertex -0.50143 9.88729 10
endloop
endfacet
facet normal 0.5712672288448418 0.8207641276566218 0
outer loop
vertex 5.23674 8.40158 0
vertex 5.23674 8.40158 10
vertex 6.05985 7.82868 0
endloop
endfacet
facet normal 0.5712672288448418 0.8207641276566218 0
outer loop
vertex 6.05985 7.82868 0
vertex 5.23674 8.40158 10
vertex 6.05985 7.82868 10
endloop
endfacet
facet normal -0.790776177146261 -0.6121054138446623 0
outer loop
vertex -7.51171 -6.44859 0
vertex -7.51171 -6.44859 10
vertex -8.12556 -5.65556 0
endloop
endfacet
facet normal -0.790776177146261 -0.6121054138446623 0
outer loop
vertex -8.12556 -5.65556 0
vertex -7.51171 -6.44859 10
vertex -8.12556 -5.65556 10
endloop
endfacet
facet normal 0.7247887795062087 0.6889711351732382 0
outer loop
vertex 6.82077 7.17545 0
vertex 6.82077 7.17545 10
vertex 7.51171 6.44859 0
endloop
endfacet
facet normal 0.7247887795062087 0.6889711351732382 0
outer loop
vertex 7.51171 6.44859 0
vertex 6.82077 7.17545 10
vertex 7.51171 6.44859 10
endloop
endfacet
facet normal 0.8978055528117003 0.44039208591944207 0
outer loop
vertex 8.65603 4.80449 0
vertex 8.65603 4.80449 10
vertex 9.09768 3.90412 0
endloop
endfacet
facet normal 0.8978055528117003 0.44039208591944207 0
outer loop
vertex 9.09768 3.90412 0
vertex 8.65603 4.80449 10
vertex 9.09768 3.90412 10
endloop
endfacet
facet normal -0.7247887795062087 -0.6889711351732382 0
outer loop
vertex -6.82077 -7.17545 0
vertex -6.82077 -7.17545 10
vertex -7.51171 -6.44859 0
endloop
endfacet
facet normal -0.7247887795062087 -0.6889711351732382 0
outer loop
vertex -7.51171 -6.44859 0
vertex -6.82077 -7.17545 10
vertex -7.51171 -6.44859 10
endloop
endfacet
facet normal -0.6513734049688649 0.7587573309690437 0
outer loop
vertex -6.82077 7.17545 0
vertex -6.82077 7.17545 10
vertex -6.05985 7.82868 0
endloop
endfacet
facet normal -0.6513734049688649 0.7587573309690437 0
outer loop
vertex -6.05985 7.82868 0
vertex -6.82077 7.17545 10
vertex -6.05985 7.82868 10
endloop
endfacet
facet normal 0.2993569846528574 0.9541411822888418 0
outer loop
vertex 2.48146 9.58396 0
vertex 2.48146 9.58396 10
vertex 3.43832 9.28375 0
endloop
endfacet
facet normal 0.2993569846528574 0.9541411822888418 0
outer loop
vertex 3.43832 9.28375 0
vertex 2.48146 9.58396 10
vertex 3.43832 9.28375 10
endloop
endfacet
facet normal -0.9987167029525481 -0.05064530820907267 0
outer loop
vertex -9.84921 -1.00157 0
vertex -9.84921 -1.00157 10
vertex -9.9 0 0
endloop
endfacet
facet normal -0.9987167029525481 -0.05064530820907267 0
outer loop
vertex -9.9 0 0
vertex -9.84921 -1.00157 10
vertex -9.9 0 10
endloop
endfacet
facet normal -0.9680759822531599 0.2506569220759314 0
outer loop
vertex -9.69735 1.99286 0
vertex -9.69735 1.99286 10
vertex -9.44598 2.96369 0
endloop
endfacet
facet normal -0.9680759822531599 0.2506569220759314 0
outer loop
vertex -9.44598 2.96369 0
vertex -9.69735 1.99286 10
vertex -9.44598 2.96369 10
endloop
endfacet
facet normal 0.9680759822531599 0.2506569220759314 0
outer loop
vertex 9.44598 2.96369 0
vertex 9.44598 2.96369 10
vertex 9.69735 1.99286 0
endloop
endfacet
facet normal 0.9680759822531599 0.2506569220759314 0
outer loop
vertex 9.69735 1.99286 0
vertex 9.44598 2.96369 10
vertex 9.69735 1.99286 10
endloop
endfacet
facet normal 0.9987167029525481 0.05064530820907267 0
outer loop
vertex 9.84921 1.00157 0
vertex 9.84921 1.00157 10
vertex 9.9 0 0
endloop
endfacet
facet normal 0.9987167029525481 0.05064530820907267 0
outer loop
vertex 9.9 0 0
vertex 9.84921 1.00157 10
vertex 9.9 0 10
endloop
endfacet
facet normal -0.8486469374957472 0.5289597106388058 0
outer loop
vertex -8.65603 4.80449 0
vertex -8.65603 4.80449 10
vertex -8.12556 5.65556 0
endloop
endfacet
facet normal -0.8486469374957472 0.5289597106388058 0
outer loop
vertex -8.12556 5.65556 0
vertex -8.65603 4.80449 10
vertex -8.12556 5.65556 10
endloop
endfacet
facet normal 0.8486469374957472 0.5289597106388058 0
outer loop
vertex 8.12556 5.65556 0
vertex 8.12556 5.65556 10
vertex 8.65603 4.80449 0
endloop
endfacet
facet normal 0.8486469374957472 0.5289597106388058 0
outer loop
vertex 8.65603 4.80449 0
vertex 8.12556 5.65556 10
vertex 8.65603 4.80449 10
endloop
endfacet
facet normal -0.8978055528117003 0.44039208591944207 0
outer loop
vertex -9.09768 3.90412 0
vertex -9.09768 3.90412 10
vertex -8.65603 4.80449 0
endloop
endfacet
facet normal -0.8978055528117003 0.44039208591944207 0
outer loop
vertex -8.65603 4.80449 0
vertex -9.09768 3.90412 10
vertex -8.65603 4.80449 10
endloop
endfacet
facet normal -0.4852974622473652 0.8743491139906686 0
outer loop
vertex -5.23674 8.40158 0
vertex -5.23674 8.40158 10
vertex -4.3599 8.88826 0
endloop
endfacet
facet normal -0.4852974622473652 0.8743491139906686 0
outer loop
vertex -4.3599 8.88826 0
vertex -5.23674 8.40158 10
vertex -4.3599 8.88826 10
endloop
endfacet
facet normal -0.8978055528117003 -0.44039208591944207 0
outer loop
vertex -8.65603 -4.80449 0
vertex -8.65603 -4.80449 10
vertex -9.09768 -3.90412 0
endloop
endfacet
facet normal -0.8978055528117003 -0.44039208591944207 0
outer loop
vertex -9.09768 -3.90412 0
vertex -8.65603 -4.80449 10
vertex -9.09768 -3.90412 10
endloop
endfacet
facet normal -0.790776177146261 0.6121054138446623 0
outer loop
vertex -8.12556 5.65556 0
vertex -8.12556 5.65556 10
vertex -7.51171 6.44859 0
endloop
endfacet
facet normal -0.790776177146261 0.6121054138446623 0
outer loop
vertex -7.51171 6.44859 0
vertex -8.12556 5.65556 10
vertex -7.51171 6.44859 10
endloop
endfacet
facet normal 0.20130431145125055 0.979528751079384 0
outer loop
vertex 1.49913 9.78584 0
vertex 1.49913 9.78584 10
vertex 2.48146 9.58396 0
endloop
endfacet
facet normal 0.20130431145125055 0.979528751079384 0
outer loop
vertex 2.48146 9.58396 0
vertex 1.49913 9.78584 10
vertex 2.48146 9.58396 10
endloop
endfacet
facet normal -0.8486469374957472 -0.5289597106388058 0
outer loop
vertex -8.12556 -5.65556 0
vertex -8.12556 -5.65556 10
vertex -8.65603 -4.80449 0
endloop
endfacet
facet normal -0.8486469374957472 -0.5289597106388058 0
outer loop
vertex -8.65603 -4.80449 0
vertex -8.12556 -5.65556 10
vertex -8.65603 -4.80449 10
endloop
endfacet
facet normal 0.6513734049688649 0.7587573309690437 0
outer loop
vertex 6.05985 7.82868 0
vertex 6.05985 7.82868 10
vertex 6.82077 7.17545 0
endloop
endfacet
facet normal 0.6513734049688649 0.7587573309690437 0
outer loop
vertex 6.82077 7.17545 0
vertex 6.05985 7.82868 10
vertex 6.82077 7.17545 10
endloop
endfacet
facet normal 0.10116222884220087 0.9948699429853523 0
outer loop
vertex 0.50143 9.88729 0
vertex 0.50143 9.88729 10
vertex 1.49913 9.78584 0
endloop
endfacet
facet normal 0.10116222884220087 0.9948699429853523 0
outer loop
vertex 1.49913 9.78584 0
vertex 0.50143 9.88729 10
vertex 1.49913 9.78584 10
endloop
endfacet
facet normal 0.9987167029525481 -0.05064530820907267 0
outer loop
vertex 9.9 0 0
vertex 9.9 0 10
vertex 9.84921 -1.00157 0
endloop
endfacet
facet normal 0.9987167029525481 -0.05064530820907267 0
outer loop
vertex 9.84921 -1.00157 0
vertex 9.9 0 10
vertex 9.84921 -1.00157 10
endloop
endfacet
facet normal -0.20130431145125055 0.979528751079384 0
outer loop
vertex -2.48146 9.58396 0
vertex -2.48146 9.58396 10
vertex -1.49913 9.78584 0
endloop
endfacet
facet normal -0.20130431145125055 0.979528751079384 0
outer loop
vertex -1.49913 9.78584 0
vertex -2.48146 9.58396 10
vertex -1.49913 9.78584 10
endloop
endfacet
facet normal 0.4852974622473652 0.8743491139906686 0
outer loop
vertex 4.3599 8.88826 0
vertex 4.3599 8.88826 10
vertex 5.23674 8.40158 0
endloop
endfacet
facet normal 0.4852974622473652 0.8743491139906686 0
outer loop
vertex 5.23674 8.40158 0
vertex 4.3599 8.88826 10
vertex 5.23674 8.40158 10
endloop
endfacet
facet normal 0.5712672288448418 -0.8207641276566218 0
outer loop
vertex 6.05985 -7.82868 0
vertex 6.05985 -7.82868 10
vertex 5.23674 -8.40158 0
endloop
endfacet
facet normal 0.5712672288448418 -0.8207641276566218 0
outer loop
vertex 5.23674 -8.40158 0
vertex 6.05985 -7.82868 10
vertex 5.23674 -8.40158 10
endloop
endfacet
facet normal 0.9377511663742606 -0.34730786049802237 0
outer loop
vertex 9.44598 -2.96369 0
vertex 9.44598 -2.96369 10
vertex 9.09768 -3.90412 0
endloop
endfacet
facet normal 0.9377511663742606 -0.34730786049802237 0
outer loop
vertex 9.09768 -3.90412 0
vertex 9.44598 -2.96369 10
vertex 9.09768 -3.90412 10
endloop
endfacet
facet normal -0.5712672288448418 0.8207641276566218 0
outer loop
vertex -6.05985 7.82868 0
vertex -6.05985 7.82868 10
vertex -5.23674 8.40158 0
endloop
endfacet
facet normal -0.5712672288448418 0.8207641276566218 0
outer loop
vertex -5.23674 8.40158 0
vertex -6.05985 7.82868 10
vertex -5.23674 8.40158 10
endloop
endfacet
facet normal 0.10116222884220087 -0.9948699429853523 0
outer loop
vertex 1.49913 -9.78584 0
vertex 1.49913 -9.78584 10
vertex 0.50143 -9.88729 0
endloop
endfacet
facet normal 0.10116222884220087 -0.9948699429853523 0
outer loop
vertex 0.50143 -9.88729 0
vertex 1.49913 -9.78584 10
vertex 0.50143 -9.88729 10
endloop
endfacet
facet normal -0.10116222884220087 -0.9948699429853523 0
outer loop
vertex -0.50143 -9.88729 0
vertex -0.50143 -9.88729 10
vertex -1.49913 -9.78584 0
endloop
endfacet
facet normal -0.10116222884220087 -0.9948699429853523 0
outer loop
vertex -1.49913 -9.78584 0
vertex -0.50143 -9.88729 10
vertex -1.49913 -9.78584 10
endloop
endfacet
facet normal -0.2993569846528574 -0.9541411822888418 0
outer loop
vertex -2.48146 -9.58396 0
vertex -2.48146 -9.58396 10
vertex -3.43832 -9.28375 0
endloop
endfacet
facet normal -0.2993569846528574 -0.9541411822888418 0
outer loop
vertex -3.43832 -9.28375 0
vertex -2.48146 -9.58396 10
vertex -3.43832 -9.28375 10
endloop
endfacet
facet normal 0.39436332873388963 -0.9189546044010696 0
outer loop
vertex 4.3599 -8.88826 0
vertex 4.3599 -8.88826 10
vertex 3.43832 -9.28375 0
endloop
endfacet
facet normal 0.39436332873388963 -0.9189546044010696 0
outer loop
vertex 3.43832 -9.28375 0
vertex 4.3599 -8.88826 10
vertex 3.43832 -9.28375 10
endloop
endfacet
facet normal -0.39436332873388963 -0.9189546044010696 0
outer loop
vertex -3.43832 -9.28375 0
vertex -3.43832 -9.28375 10
vertex -4.3599 -8.88826 0
endloop
endfacet
facet normal -0.39436332873388963 -0.9189546044010696 0
outer loop
vertex -4.3599 -8.88826 0
vertex -3.43832 -9.28375 10
vertex -4.3599 -8.88826 10
endloop
endfacet
facet normal -0.9377511663742606 -0.34730786049802237 0
outer loop
vertex -9.09768 -3.90412 0
vertex -9.09768 -3.90412 10
vertex -9.44598 -2.96369 0
endloop
endfacet
facet normal -0.9377511663742606 -0.34730786049802237 0
outer loop
vertex -9.44598 -2.96369 0
vertex -9.09768 -3.90412 10
vertex -9.44598 -2.96369 10
endloop
endfacet
facet normal -0.9884683306443113 0.15142773627459605 0
outer loop
vertex -9.84921 1.00157 0
vertex -9.84921 1.00157 10
vertex -9.69735 1.99286 0
endloop
endfacet
facet normal -0.9884683306443113 0.15142773627459605 0
outer loop
vertex -9.69735 1.99286 0
vertex -9.84921 1.00157 10
vertex -9.69735 1.99286 10
endloop
endfacet
facet normal -0.5712672288448418 -0.8207641276566218 0
outer loop
vertex -5.23674 -8.40158 0
vertex -5.23674 -8.40158 10
vertex -6.05985 -7.82868 0
endloop
endfacet
facet normal -0.5712672288448418 -0.8207641276566218 0
outer loop
vertex -6.05985 -7.82868 0
vertex -5.23674 -8.40158 10
vertex -6.05985 -7.82868 10
endloop
endfacet
facet normal 0.9680759822531599 -0.2506569220759314 0
outer loop
vertex 9.69735 -1.99286 0
vertex 9.69735 -1.99286 10
vertex 9.44598 -2.96369 0
endloop
endfacet
facet normal 0.9680759822531599 -0.2506569220759314 0
outer loop
vertex 9.44598 -2.96369 0
vertex 9.69735 -1.99286 10
vertex 9.44598 -2.96369 10
endloop
endfacet
facet normal 0.9884683306443113 -0.15142773627459605 0
outer loop
vertex 9.84921 -1.00157 0
vertex 9.84921 -1.00157 10
vertex 9.69735 -1.99286 0
endloop
endfacet
facet normal 0.9884683306443113 -0.15142773627459605 0
outer loop
vertex 9.69735 -1.99286 0
vertex 9.84921 -1.00157 10
vertex 9.69735 -1.99286 10
endloop
endfacet
facet normal -0.39436332873388963 0.9189546044010696 0
outer loop
vertex -4.3599 8.88826 0
vertex -4.3599 8.88826 10
vertex -3.43832 9.28375 0
endloop
endfacet
facet normal -0.39436332873388963 0.9189546044010696 0
outer loop
vertex -3.43832 9.28375 0
vertex -4.3599 8.88826 10
vertex -3.43832 9.28375 10
endloop
endfacet
facet normal 0.39436332873388963 0.9189546044010696 0
outer loop
vertex 3.43832 9.28375 0
vertex 3.43832 9.28375 10
vertex 4.3599 8.88826 0
endloop
endfacet
facet normal 0.39436332873388963 0.9189546044010696 0
outer loop
vertex 4.3599 8.88826 0
vertex 3.43832 9.28375 10
vertex 4.3599 8.88826 10
endloop
endfacet
facet normal -0.2993569846528574 0.9541411822888418 0
outer loop
vertex -3.43832 9.28375 0
vertex -3.43832 9.28375 10
vertex -2.48146 9.58396 0
endloop
endfacet
facet normal -0.2993569846528574 0.9541411822888418 0
outer loop
vertex -2.48146 9.58396 0
vertex -3.43832 9.28375 10
vertex -2.48146 9.58396 10
endloop
endfacet
facet normal 0.9884683306443113 0.15142773627459605 0
outer loop
vertex 9.69735 1.99286 0
vertex 9.69735 1.99286 10
vertex 9.84921 1.00157 0
endloop
endfacet
facet normal 0.9884683306443113 0.15142773627459605 0
outer loop
vertex 9.84921 1.00157 0
vertex 9.69735 1.99286 10
vertex 9.84921 1.00157 10
endloop
endfacet
facet normal -0.9377511663742606 0.34730786049802237 0
outer loop
vertex -9.44598 2.96369 0
vertex -9.44598 2.96369 10
vertex -9.09768 3.90412 0
endloop
endfacet
facet normal -0.9377511663742606 0.34730786049802237 0
outer loop
vertex -9.09768 3.90412 0
vertex -9.44598 2.96369 10
vertex -9.09768 3.90412 10
endloop
endfacet
facet normal -0.9884683306443113 -0.15142773627459605 0
outer loop
vertex -9.69735 -1.99286 0
vertex -9.69735 -1.99286 10
vertex -9.84921 -1.00157 0
endloop
endfacet
facet normal -0.9884683306443113 -0.15142773627459605 0
outer loop
vertex -9.84921 -1.00157 0
vertex -9.69735 -1.99286 10
vertex -9.84921 -1.00157 10
endloop
endfacet
facet normal 0.9377511663742606 0.34730786049802237 0
outer loop
vertex 9.09768 3.90412 0
vertex 9.09768 3.90412 10
vertex 9.44598 2.96369 0
endloop
endfacet
facet normal 0.9377511663742606 0.34730786049802237 0
outer loop
vertex 9.44598 2.96369 0
vertex 9.09768 3.90412 10
vertex 9.44598 2.96369 10
endloop
endfacet
facet normal 0.790776177146261 0.6121054138446623 0
outer loop
vertex 7.51171 6.44859 0
vertex 7.51171 6.44859 10
vertex 8.12556 5.65556 0
endloop
endfacet
facet normal 0.790776177146261 0.6121054138446623 0
outer loop
vertex 8.12556 5.65556 0
vertex 7.51171 6.44859 10
vertex 8.12556 5.65556 10
endloop
endfacet
facet normal 0.8486469374957472 -0.5289597106388058 0
outer loop
vertex 8.65603 -4.80449 0
vertex 8.65603 -4.80449 10
vertex 8.12556 -5.65556 0
endloop
endfacet
facet normal 0.8486469374957472 -0.5289597106388058 0
outer loop
vertex 8.12556 -5.65556 0
vertex 8.65603 -4.80449 10
vertex 8.12556 -5.65556 10
endloop
endfacet
facet normal 0.20130431145125055 -0.979528751079384 0
outer loop
vertex 2.48146 -9.58396 0
vertex 2.48146 -9.58396 10
vertex 1.49913 -9.78584 0
endloop
endfacet
facet normal 0.20130431145125055 -0.979528751079384 0
outer loop
vertex 1.49913 -9.78584 0
vertex 2.48146 -9.58396 10
vertex 1.49913 -9.78584 10
endloop
endfacet
facet normal 0.790775802493285 -0.6121058978568179 0
outer loop
vertex 8.12556 -5.65556 10
vertex 7.98246 -5.84043 7.66877
vertex 7.98246 -5.84043 0
endloop
endfacet
facet normal 0.7907758024932849 -0.6121058978568179 0
outer loop
vertex 8.12556 -5.65556 10
vertex 7.98246 -5.84043 0
vertex 8.12556 -5.65556 0
endloop
endfacet
facet normal 0.790775802493285 -0.6121058978568179 0
outer loop
vertex 7.98246 -5.84043 7.66877
vertex 8.12556 -5.65556 10
vertex 7.98246 -5.84043 10
endloop
endfacet
facet normal 0.7907762910342226 -0.6121052667132986 0
outer loop
vertex 7.98246 -5.84043 7.66877
vertex 7.51171 -6.44859 0
vertex 7.98246 -5.84043 0
endloop
endfacet
facet normal 0.7907762910342226 -0.6121052667132986 0
outer loop
vertex 7.98246 -5.84043 7.66877
vertex 7.98246 -5.84043 10
vertex 7.51171 -6.44859 10
endloop
endfacet
facet normal 0.7907762910342226 -0.6121052667132986 0
outer loop
vertex 7.98246 -5.84043 7.66877
vertex 7.51171 -6.44859 10
vertex 7.51171 -6.44859 0
endloop
endfacet
endsolid JSxCAD
